<?xml version="1.0" standalone="no"?>
<!DOCTYPE svg PUBLIC "-//W3C//DTD SVG 20010904//EN"
 "http://www.w3.org/TR/2001/REC-SVG-20010904/DTD/svg10.dtd">
<svg version="1.0" xmlns="http://www.w3.org/2000/svg"
 width="80.000000pt" height="80.000000pt" viewBox="0 0 80.000000 80.000000"
 preserveAspectRatio="xMidYMid meet">

<g transform="translate(0.000000,80.000000) scale(0.100000,-0.100000)"
fill="#000000" stroke="none">
<path d="M292 708 c-6 -6 -12 -19 -12 -28 0 -28 -23 -40 -77 -40 -63 0 -97
-14 -112 -47 -7 -15 -11 -105 -11 -248 l0 -225 330 0 330 0 0 225 c0 228 -5
266 -39 281 -9 4 -45 10 -80 13 -47 5 -66 11 -72 24 -5 9 -13 25 -18 35 -7 14
-25 17 -117 20 -77 2 -113 -1 -122 -10z m226 -27 c10 -30 -20 -41 -108 -41
-89 0 -119 12 -107 42 6 18 209 16 215 -1z m183 -82 c18 -18 19 -34 19 -238
l0 -220 -50 1 c-45 1 -50 4 -50 24 0 28 -43 65 -103 88 -49 19 -61 42 -32 66
8 7 15 18 15 25 0 7 7 18 15 25 11 9 15 33 15 86 0 82 -5 90 -74 125 -57 28
-99 21 -155 -27 -38 -33 -41 -38 -26 -53 9 -11 15 -36 15 -65 0 -37 7 -59 30
-93 17 -24 30 -50 30 -58 0 -7 -21 -21 -47 -31 -60 -23 -103 -60 -103 -88 0
-20 -5 -23 -50 -24 l-50 -1 0 220 c0 204 1 220 19 238 19 19 36 20 291 20 255
0 272 -1 291 -20z m-259 -32 c7 -7 25 -18 41 -24 17 -8 27 -20 27 -34 l0 -21
-18 22 c-13 17 -24 21 -40 16 -12 -4 -22 -12 -22 -18 0 -5 7 -7 16 -4 25 10
44 -12 44 -50 0 -19 5 -34 10 -34 6 0 10 -7 10 -15 0 -8 -4 -15 -9 -15 -5 0
-11 -14 -15 -30 -4 -22 -15 -35 -41 -47 -33 -16 -37 -16 -70 0 -26 12 -37 25
-41 47 -4 16 -10 30 -15 30 -11 0 -12 27 -1 32 13 5 24 58 12 58 -5 0 -10 -6
-10 -12 -1 -7 -7 1 -14 17 -15 34 -9 48 39 77 35 21 78 23 97 5z m6 -301 c-7
-45 -69 -45 -76 0 -2 17 3 19 38 19 35 0 40 -2 38 -19z m-38 -56 c10 0 28 9
42 19 24 19 25 19 68 0 55 -25 80 -47 80 -71 0 -17 -12 -18 -190 -18 -178 0
-190 1 -190 18 0 24 25 46 80 71 43 19 44 19 68 0 14 -10 32 -19 42 -19z"/>
<path d="M150 580 c0 -5 5 -10 10 -10 6 0 10 5 10 10 0 6 -4 10 -10 10 -5 0
-10 -4 -10 -10z"/>
<path d="M650 580 c0 -5 5 -10 10 -10 6 0 10 5 10 10 0 6 -4 10 -10 10 -5 0
-10 -4 -10 -10z"/>
<path d="M150 540 c0 -5 5 -10 10 -10 6 0 10 5 10 10 0 6 -4 10 -10 10 -5 0
-10 -4 -10 -10z"/>
<path d="M650 540 c0 -5 5 -10 10 -10 6 0 10 5 10 10 0 6 -4 10 -10 10 -5 0
-10 -4 -10 -10z"/>
<path d="M150 500 c0 -5 5 -10 10 -10 6 0 10 5 10 10 0 6 -4 10 -10 10 -5 0
-10 -4 -10 -10z"/>
<path d="M650 500 c0 -5 5 -10 10 -10 6 0 10 5 10 10 0 6 -4 10 -10 10 -5 0
-10 -4 -10 -10z"/>
<path d="M150 460 c0 -5 5 -10 10 -10 6 0 10 5 10 10 0 6 -4 10 -10 10 -5 0
-10 -4 -10 -10z"/>
<path d="M650 460 c0 -5 5 -10 10 -10 6 0 10 5 10 10 0 6 -4 10 -10 10 -5 0
-10 -4 -10 -10z"/>
<path d="M150 420 c0 -5 5 -10 10 -10 6 0 10 5 10 10 0 6 -4 10 -10 10 -5 0
-10 -4 -10 -10z"/>
<path d="M650 420 c0 -5 5 -10 10 -10 6 0 10 5 10 10 0 6 -4 10 -10 10 -5 0
-10 -4 -10 -10z"/>
<path d="M150 380 c0 -5 5 -10 10 -10 6 0 10 5 10 10 0 6 -4 10 -10 10 -5 0
-10 -4 -10 -10z"/>
<path d="M650 380 c0 -5 5 -10 10 -10 6 0 10 5 10 10 0 6 -4 10 -10 10 -5 0
-10 -4 -10 -10z"/>
<path d="M150 340 c0 -5 5 -10 10 -10 6 0 10 5 10 10 0 6 -4 10 -10 10 -5 0
-10 -4 -10 -10z"/>
<path d="M650 340 c0 -5 5 -10 10 -10 6 0 10 5 10 10 0 6 -4 10 -10 10 -5 0
-10 -4 -10 -10z"/>
<path d="M150 300 c0 -5 5 -10 10 -10 6 0 10 5 10 10 0 6 -4 10 -10 10 -5 0
-10 -4 -10 -10z"/>
<path d="M650 300 c0 -5 5 -10 10 -10 6 0 10 5 10 10 0 6 -4 10 -10 10 -5 0
-10 -4 -10 -10z"/>
<path d="M150 260 c0 -5 5 -10 10 -10 6 0 10 5 10 10 0 6 -4 10 -10 10 -5 0
-10 -4 -10 -10z"/>
<path d="M650 260 c0 -5 5 -10 10 -10 6 0 10 5 10 10 0 6 -4 10 -10 10 -5 0
-10 -4 -10 -10z"/>
<path d="M150 220 c0 -5 5 -10 10 -10 6 0 10 5 10 10 0 6 -4 10 -10 10 -5 0
-10 -4 -10 -10z"/>
<path d="M650 220 c0 -5 5 -10 10 -10 6 0 10 5 10 10 0 6 -4 10 -10 10 -5 0
-10 -4 -10 -10z"/>
<path d="M150 180 c0 -5 5 -10 10 -10 6 0 10 5 10 10 0 6 -4 10 -10 10 -5 0
-10 -4 -10 -10z"/>
<path d="M650 180 c0 -5 5 -10 10 -10 6 0 10 5 10 10 0 6 -4 10 -10 10 -5 0
-10 -4 -10 -10z"/>
<path d="M390 500 c0 -5 5 -10 10 -10 6 0 10 5 10 10 0 6 -4 10 -10 10 -5 0
-10 -4 -10 -10z"/>
</g>
</svg>
