<?xml version="1.0" standalone="no"?>
<!DOCTYPE svg PUBLIC "-//W3C//DTD SVG 20010904//EN"
 "http://www.w3.org/TR/2001/REC-SVG-20010904/DTD/svg10.dtd">
<svg version="1.0" xmlns="http://www.w3.org/2000/svg"
 width="1089.000000pt" height="1182.000000pt" viewBox="0 0 1089.000000 1182.000000"
 preserveAspectRatio="xMidYMid meet">

<g transform="translate(0.000000,1182.000000) scale(0.100000,-0.100000)"
fill="#000000" stroke="none">
<path d="M0 5910 l0 -5910 1755 0 c965 0 1755 3 1755 8 1 12 -1 1735 -2 1762
0 31 18 358 32 550 5 80 15 219 21 310 6 90 12 167 15 171 4 6 7 44 39 399 18
203 59 520 84 660 22 116 81 305 132 420 44 99 131 246 144 242 6 -1 14 -15
18 -30 12 -40 0 -308 -17 -372 -13 -48 -13 -74 1 -214 12 -128 13 -166 3 -196
-10 -31 -10 -47 3 -91 8 -30 18 -74 22 -99 9 -59 20 -106 55 -220 16 -52 37
-122 46 -155 10 -33 24 -69 31 -80 7 -11 19 -40 28 -64 8 -25 27 -60 41 -78
14 -19 37 -62 51 -96 14 -34 42 -80 62 -102 20 -22 45 -53 56 -69 42 -59 57
-77 63 -72 7 8 -48 86 -60 86 -6 0 -7 7 -4 16 3 8 2 12 -4 9 -14 -9 -12 9 2
23 8 8 9 12 1 12 -6 0 -13 -6 -16 -12 -3 -9 -7 -7 -12 5 -10 24 1 48 20 41 8
-3 15 -2 15 4 0 5 -7 12 -15 16 -8 3 -15 13 -15 22 0 10 5 14 15 10 10 -4 15
1 15 14 0 11 5 20 10 20 6 0 10 13 10 29 0 16 7 34 15 41 8 7 15 21 15 31 0
11 4 19 9 19 24 0 41 -14 41 -34 0 -11 9 -34 20 -51 11 -16 20 -39 20 -51 0
-24 36 -60 65 -66 11 -2 19 -10 17 -16 -1 -7 6 -16 15 -19 10 -4 24 -13 31
-20 17 -17 56 2 48 23 -3 8 0 17 7 20 7 2 14 14 15 27 1 12 10 44 21 72 17 44
17 53 5 89 -18 49 -12 70 16 61 14 -5 20 -2 20 10 0 9 11 27 25 41 28 28 31
40 13 47 -7 2 -10 8 -6 12 4 4 14 2 23 -5 22 -18 31 12 17 58 -8 26 -8 39 0
49 7 9 7 13 -1 13 -8 0 -8 6 1 22 30 53 47 56 49 9 1 -24 2 -23 12 8 8 26 8
36 -1 39 -14 4 -16 29 -3 34 5 2 11 26 12 53 3 45 1 50 -19 53 -20 3 -29 24
-23 56 1 4 -3 13 -8 20 -5 6 -11 41 -12 78 -2 59 1 71 25 102 15 20 33 36 41
36 7 0 15 4 17 9 2 5 32 20 68 35 57 23 66 24 76 11 11 -15 39 -22 31 -7 -3 4
25 7 62 7 63 0 66 -1 64 -23 -2 -19 1 -23 22 -22 6 0 24 -13 56 -43 10 -9 25
-17 32 -17 7 0 18 -5 25 -12 8 -8 14 -5 21 15 6 14 19 31 31 37 11 6 20 17 20
25 0 8 6 14 13 13 7 -2 12 9 12 30 0 17 -4 32 -10 31 -5 0 -9 -8 -7 -17 2 -15
1 -15 -8 1 -6 9 -19 17 -30 17 -10 0 -20 4 -22 10 -1 5 -18 11 -37 13 -29 2
-34 6 -37 30 -2 22 3 30 23 38 33 12 59 7 55 -11 -3 -12 14 -30 31 -30 11 0 8
23 -8 54 -18 35 -18 36 0 36 20 0 19 16 -1 24 -21 8 -34 -1 -27 -19 3 -8 1
-15 -5 -15 -5 0 -13 10 -16 23 -7 21 -7 21 -16 2 -5 -11 -9 -15 -9 -9 -1 6 -9
10 -18 10 -10 -1 -19 4 -21 9 -1 6 9 10 23 10 26 1 42 11 32 21 -3 3 -23 7
-44 7 -28 2 -39 7 -41 21 -4 16 0 18 31 12 21 -4 38 -2 42 4 3 5 15 10 25 10
25 0 37 20 19 34 -15 11 -20 46 -6 46 4 0 12 0 17 0 6 0 9 -5 8 -12 -2 -6 5
-14 15 -16 14 -3 17 4 17 35 0 42 -14 65 -36 56 -10 -4 -14 4 -14 31 0 24 5
36 14 36 7 0 20 7 27 16 11 14 11 18 -4 29 -15 11 -15 16 6 65 27 66 86 127
197 207 112 79 163 105 230 112 35 4 54 11 53 19 -2 6 15 23 36 38 21 14 41
35 44 47 10 43 39 112 49 118 5 4 14 27 18 51 6 28 20 57 39 77 29 31 43 70
21 56 -6 -3 -10 -1 -10 5 0 6 11 15 24 22 14 6 30 25 36 42 19 52 26 60 54 74
21 10 26 19 23 34 -5 16 -2 19 14 15 16 -4 19 -1 17 16 -2 15 4 25 20 32 12 6
22 19 22 30 0 12 14 31 31 44 19 14 28 28 25 37 -4 10 4 19 24 26 25 8 29 14
24 34 -5 18 -2 24 9 24 17 0 32 34 22 50 -3 5 1 10 9 10 9 0 18 -10 20 -22 4
-19 14 -309 16 -468 0 -30 10 -46 63 -100 78 -81 138 -191 198 -360 29 -81 67
-353 74 -530 8 -199 8 -787 0 -800 -3 -5 -2 -34 4 -64 13 -71 -12 -409 -60
-802 -10 -89 -19 -165 -19 -168 0 -3 -6 -6 -12 -6 -10 0 -13 -26 -14 -97 0
-89 -7 -184 -33 -478 -21 -228 -31 -308 -41 -320 -6 -8 -8 -40 -4 -81 4 -43 1
-86 -7 -114 -6 -25 -13 -92 -14 -150 -1 -58 -10 -235 -20 -395 -10 -159 -19
-321 -20 -360 -1 -38 -6 -123 -10 -187 l-7 -118 1106 0 1106 0 0 31 c0 26 5
33 40 46 47 19 52 31 11 25 -37 -5 -70 17 -87 58 -12 29 -12 31 9 39 12 5 25
7 30 4 4 -2 7 0 7 5 0 5 -12 14 -27 21 l-27 13 22 16 c27 21 18 35 -33 53 -48
16 -70 33 -61 48 5 8 13 8 27 0 27 -14 35 -5 21 27 -9 18 -9 31 -2 45 7 13 7
25 0 38 -5 11 -10 31 -10 45 0 17 -4 24 -13 20 -18 -7 -43 24 -31 36 6 6 25
12 42 14 44 5 50 13 23 32 -39 28 -61 73 -49 100 9 19 8 28 -5 42 -21 23 -22
33 -2 26 13 -5 14 -2 5 21 -13 34 -5 47 26 39 14 -4 24 -2 24 5 0 6 -6 11 -14
11 -18 0 -30 30 -16 44 5 5 10 18 10 28 0 15 5 17 26 12 36 -9 28 16 -12 35
-47 23 -60 59 -24 68 11 3 18 9 15 13 -3 5 -1 19 4 32 7 19 5 27 -10 36 -20
13 -27 62 -9 62 6 0 10 -6 10 -14 0 -14 29 -31 38 -22 12 12 -10 36 -40 44
-47 12 -44 38 5 34 41 -4 48 6 17 26 -14 8 -20 24 -21 50 0 20 -4 46 -8 57 -5
11 -5 27 -1 35 11 23 22 76 14 68 -8 -9 -34 9 -34 23 0 5 6 9 13 9 6 0 21 7
31 15 16 12 17 17 6 30 -11 14 -10 17 8 22 24 6 56 49 47 63 -4 6 -19 17 -34
25 -35 18 -48 55 -20 55 10 0 19 7 19 15 0 8 7 15 15 15 10 0 15 10 15 26 0
24 3 26 30 21 28 -6 29 -5 20 19 -13 33 -13 34 5 34 21 0 18 30 -5 60 -27 35
-25 43 10 35 19 -4 30 -3 30 4 0 6 -4 11 -8 11 -20 0 -43 27 -36 43 8 21 24
22 24 2 0 -8 5 -15 10 -15 19 0 10 49 -10 60 -13 7 -20 21 -20 40 0 26 4 30
28 30 42 0 56 19 29 41 -22 17 -22 18 -2 24 11 4 27 11 35 16 8 5 27 14 43 20
28 11 35 37 16 56 -19 19 -3 44 25 37 25 -6 24 -10 27 96 0 14 -3 38 -7 54 -7
28 -6 28 17 13 23 -16 49 -11 52 9 1 5 12 9 25 9 12 -1 22 2 22 5 0 13 -41 70
-50 70 -5 0 -10 7 -10 15 0 15 11 19 38 16 9 -2 11 9 6 39 -5 33 -4 40 10 40
21 0 20 9 -1 27 -13 10 -15 16 -5 19 6 3 12 15 12 25 0 13 6 20 18 18 40 -4
48 1 28 16 -10 8 -22 13 -25 11 -3 -2 -12 2 -19 10 -7 8 -8 14 -2 14 5 0 10
11 10 25 0 14 -5 25 -11 25 -5 0 -7 5 -4 10 3 6 19 10 34 10 15 0 32 5 39 12
8 8 15 8 27 -2 12 -10 15 -10 15 2 0 8 -5 19 -12 26 -9 9 -8 15 7 26 11 8 24
12 29 8 5 -3 -12 34 -37 82 -26 49 -47 90 -47 93 0 3 11 2 25 -1 35 -9 31 6
-8 24 -20 9 -31 22 -31 33 1 13 -8 19 -37 23 -48 8 -57 19 -28 34 19 11 19 13
5 29 -23 25 -20 31 13 21 23 -6 33 -4 46 10 13 14 13 19 3 24 -10 5 -10 7 0
12 6 3 12 9 12 14 0 11 -60 19 -66 8 -3 -4 3 -8 13 -9 11 0 7 -4 -10 -9 -16
-5 -35 -6 -43 -3 -17 6 -18 30 -2 36 9 4 5 12 -11 25 -24 20 -22 42 5 42 8 0
-3 17 -27 39 -44 40 -48 71 -10 71 11 0 23 5 26 10 6 10 -3 12 -65 14 -27 1
-36 6 -38 21 -4 29 -64 59 -118 60 -26 0 -49 6 -53 14 -7 10 -23 12 -65 7 -31
-4 -58 -12 -62 -17 -4 -6 -11 -6 -20 2 -11 9 -14 9 -14 0 0 -8 -6 -7 -16 3
-19 20 -30 20 -37 2 -7 -18 30 -37 73 -36 58 1 70 -2 70 -21 0 -10 5 -21 10
-24 6 -4 8 -11 5 -16 -9 -14 -52 -3 -81 20 -39 30 -52 27 -52 -14 0 -19 3 -35
7 -36 23 -3 66 -11 67 -12 1 -1 5 -12 8 -24 5 -16 3 -23 -6 -23 -20 1 -93 56
-91 68 4 17 -54 55 -60 40 -2 -7 0 -21 5 -31 5 -10 8 -23 5 -30 -2 -6 6 -19
17 -29 17 -13 18 -19 9 -29 -10 -10 -15 -9 -27 1 -9 7 -13 16 -10 21 3 5 0 9
-6 9 -6 0 -9 4 -6 9 3 4 -1 17 -9 27 -13 17 -14 18 -15 2 0 -23 -12 -23 -41 2
l-24 20 26 -6 c43 -9 48 34 5 49 -13 5 -17 13 -12 30 3 12 6 32 6 45 0 13 6
22 15 22 8 0 12 -6 10 -12 -6 -16 4 -29 33 -46 18 -10 22 -10 22 2 0 8 -4 18
-10 21 -5 3 -10 15 -10 26 0 10 -5 19 -11 19 -7 0 -17 7 -24 17 -11 15 -14 15
-36 0 -29 -21 -58 -22 -65 -2 -9 21 -24 19 -24 -4 0 -12 9 -21 25 -25 18 -5
25 -13 25 -29 0 -13 6 -29 12 -35 10 -10 10 -17 0 -33 -7 -11 -10 -24 -7 -29
4 -6 0 -10 -9 -10 -8 0 -17 6 -19 13 -3 6 -6 2 -6 -10 -1 -13 -5 -23 -10 -23
-14 0 -18 32 -7 62 10 27 8 34 -28 96 -7 13 -16 23 -20 23 -25 -3 -36 0 -31 9
6 9 -8 15 -29 11 -4 -1 -19 5 -32 14 -13 8 -33 15 -44 15 -12 0 -25 10 -32 25
-6 14 -15 25 -20 25 -4 0 -8 9 -8 20 0 15 -9 22 -30 27 -25 4 -29 9 -24 26 4
13 2 17 -5 13 -6 -4 -11 -13 -11 -21 0 -16 -31 -29 -39 -16 -3 5 -25 14 -48
20 -23 6 -45 17 -49 23 -4 7 -3 8 4 4 8 -5 12 5 12 32 0 39 -1 40 -47 52 -60
16 -123 47 -123 60 0 6 -7 10 -16 10 -8 0 -13 -4 -10 -9 9 -14 -34 -21 -60 -9
-30 14 -41 4 -26 -25 6 -12 22 -50 36 -83 25 -61 70 -160 127 -280 16 -34 29
-66 29 -72 0 -5 13 -36 30 -67 17 -31 30 -61 30 -65 0 -5 16 -42 35 -83 19
-41 35 -81 35 -88 1 -8 20 -59 44 -113 43 -97 48 -126 20 -126 -8 0 -14 -7
-14 -14 0 -18 -55 -61 -90 -71 -14 -4 -36 -16 -49 -26 -13 -11 -30 -19 -37
-19 -7 0 -28 -13 -46 -29 -18 -15 -51 -34 -72 -42 -21 -8 -44 -22 -50 -32 -6
-9 -13 -17 -17 -17 -3 0 -5 39 -4 87 0 49 -3 96 -8 107 -6 13 -5 21 4 27 10 6
10 11 0 22 -9 11 -9 17 -1 22 7 4 10 18 7 31 -3 16 0 24 9 24 8 0 14 9 14 20
0 11 6 20 14 20 21 0 30 20 17 33 -18 18 -13 36 14 43 31 8 31 12 1 77 -13 29
-26 66 -29 83 -5 27 -3 33 16 38 20 6 20 7 5 17 -15 8 -16 13 -5 32 6 12 18
26 24 30 9 5 11 27 8 70 -3 34 -5 77 -5 95 0 17 -3 32 -8 32 -5 0 -7 -12 -4
-26 4 -23 2 -25 -16 -20 -25 8 -29 2 -35 -52 -5 -42 -37 -92 -37 -58 0 18 -8
20 -29 7 -12 -8 -11 -13 6 -35 11 -14 22 -23 25 -21 3 3 5 -1 6 -7 1 -7 4 -25
8 -41 4 -17 2 -27 -5 -27 -6 0 -11 -11 -11 -24 0 -14 -11 -33 -25 -44 -32 -25
-33 -47 -2 -38 12 3 26 6 30 6 5 0 6 9 2 19 -9 29 14 36 39 12 20 -21 20 -23
4 -35 -10 -7 -18 -21 -18 -30 0 -10 -8 -16 -23 -16 -34 0 -38 -9 -21 -43 15
-27 15 -31 1 -39 -31 -17 -47 -40 -47 -67 0 -16 -9 -40 -20 -54 -22 -28 -26
-53 -8 -59 6 -2 11 -21 10 -41 -1 -20 3 -39 8 -42 6 -3 10 -10 10 -16 0 -15
-49 -10 -77 8 l-26 17 17 -32 c22 -42 21 -45 -16 -37 -43 9 -132 70 -149 101
-7 13 -28 36 -46 50 -33 25 -121 106 -173 158 -14 14 -30 26 -36 26 -12 0 -74
62 -74 74 0 5 11 6 24 4 22 -4 22 -3 10 20 -9 17 -10 31 -3 43 7 14 2 25 -25
52 -26 26 -32 37 -23 46 9 9 9 14 -2 20 -7 5 -15 30 -17 57 -2 27 -4 51 -5 54
0 3 0 19 1 36 1 17 -6 59 -15 93 -9 34 -13 67 -9 72 4 6 1 29 -6 50 -9 27 -10
43 -3 50 18 18 64 20 89 4 23 -15 24 -14 24 5 0 11 3 20 8 20 4 0 16 7 26 15
19 14 19 15 1 35 -10 11 -25 20 -34 20 -14 -1 -14 -2 2 -14 23 -18 22 -26 -5
-26 -17 0 -19 -3 -9 -9 20 -13 3 -33 -22 -25 -55 16 -79 72 -45 104 24 22 18
95 -9 116 -17 13 -17 13 5 14 25 0 29 18 7 34 -10 7 -18 34 -22 69 -3 31 -10
57 -14 57 -5 0 -9 14 -9 30 0 17 5 30 11 30 8 0 8 4 2 13 -6 6 -11 28 -11 47
-1 19 -7 60 -13 90 -6 30 -14 73 -18 95 -4 22 -17 58 -29 80 -12 22 -22 51
-22 65 0 14 -4 30 -9 36 -9 9 -43 66 -68 116 -8 15 -23 34 -33 41 -10 7 -39
41 -65 76 -27 36 -67 75 -96 93 -69 44 -61 54 14 17 50 -25 99 -68 262 -233
110 -111 225 -229 256 -262 30 -32 75 -77 100 -100 24 -23 78 -77 120 -120
129 -135 215 -205 284 -229 28 -9 59 -21 70 -25 32 -13 394 -128 460 -146 33
-9 83 -22 112 -29 28 -7 80 -22 115 -33 34 -11 90 -27 123 -37 33 -9 80 -23
105 -31 104 -34 222 -67 330 -94 164 -41 286 -75 440 -125 321 -103 404 -126
540 -152 14 -3 81 -20 150 -38 146 -40 320 -75 370 -75 39 0 113 -21 158 -44
44 -22 98 -94 112 -146 6 -25 16 -52 20 -62 5 -9 10 -36 11 -60 2 -23 6 -50
10 -58 68 -134 108 -256 56 -168 -12 21 -27 38 -34 38 -14 0 -53 61 -53 84 0
9 -6 16 -14 16 -8 0 -16 7 -20 15 -3 8 -12 15 -21 15 -11 0 -15 -11 -15 -42
-1 -24 -7 -54 -15 -68 -8 -14 -14 -42 -15 -62 0 -20 -6 -65 -14 -100 -8 -35
-16 -82 -19 -106 l-5 -43 46 8 c67 10 102 6 126 -15 23 -20 97 -57 134 -65
l22 -5 0 4644 0 4644 -5445 0 -5445 0 0 -5910z m5978 4588 c23 -6 45 -15 48
-19 3 -5 28 -9 56 -9 55 0 128 -18 128 -32 0 -4 -9 -8 -20 -8 -22 0 -27 -15
-8 -26 7 -5 -1 -12 -22 -19 l-35 -12 45 -8 c25 -5 50 -10 55 -11 6 -1 18 -2
28 -3 10 0 15 -6 12 -12 -5 -6 -27 -8 -63 -3 -62 7 -96 20 -87 33 2 5 -4 11
-15 14 -25 6 -26 -2 -2 -19 16 -12 16 -13 0 -19 -10 -4 -32 5 -59 24 -23 17
-48 31 -56 31 -10 0 -12 6 -8 20 4 14 2 20 -9 20 -8 0 -18 -4 -21 -10 -3 -5
-17 -10 -30 -10 -13 0 -40 -14 -60 -32 l-36 -31 7 26 c5 23 3 27 -15 27 -12 0
-30 -6 -41 -12 -15 -10 -22 -10 -32 0 -16 16 -28 15 -28 -3 0 -17 -16 -20 -25
-5 -7 12 -141 12 -170 1 -17 -7 -17 -9 -4 -17 9 -5 21 -19 28 -31 6 -13 20
-23 30 -23 11 0 21 -6 24 -14 3 -7 26 -17 51 -20 36 -6 46 -11 46 -27 0 -10
-4 -19 -9 -19 -16 0 -19 -39 -4 -52 11 -9 19 -9 34 0 10 7 26 12 34 12 14 0
14 4 -1 32 -15 29 -15 33 0 43 8 7 13 15 9 18 -3 4 2 9 11 13 11 4 23 -3 37
-20 19 -24 26 -26 90 -24 43 2 74 7 81 15 8 10 6 13 -8 13 -11 0 -15 3 -8 10
5 5 30 6 59 2 45 -7 47 -9 23 -15 -25 -7 -39 -26 -20 -28 4 0 18 -2 31 -5 34
-6 54 13 40 39 -10 18 -9 19 7 12 11 -5 37 -9 59 -10 38 -1 125 -48 125 -67 0
-4 3 -7 8 -6 13 3 61 -24 66 -38 9 -22 -32 -17 -46 6 -7 11 -16 20 -20 20 -15
0 -8 -27 12 -45 11 -10 20 -24 20 -30 0 -7 14 -18 30 -25 40 -17 38 -30 -5
-30 -31 0 -35 3 -35 25 0 18 -5 25 -20 25 -21 0 -27 -15 -10 -25 6 -3 10 -11
10 -16 0 -6 -12 -1 -26 10 -32 25 -48 27 -40 4 4 -9 1 -20 -6 -24 -8 -5 -3
-11 16 -19 16 -6 42 -22 59 -36 19 -16 32 -21 37 -14 4 7 15 3 31 -11 l24 -22
-30 7 c-28 6 -29 5 -11 -9 11 -8 26 -15 33 -15 7 0 52 -18 99 -41 63 -30 89
-38 97 -30 6 6 19 11 29 11 10 0 18 4 18 10 0 27 -40 82 -84 114 -51 38 -43
51 9 16 17 -11 33 -20 37 -20 11 0 -29 83 -51 105 -19 20 -19 21 0 22 10 1 19
-1 19 -5 0 -10 55 -42 71 -42 20 0 -18 36 -58 55 -19 9 -36 24 -39 33 -3 9
-11 29 -19 44 -12 24 -12 26 3 20 9 -3 28 -17 42 -31 14 -14 52 -50 83 -79 31
-29 57 -56 57 -59 0 -3 11 -18 25 -35 28 -33 34 -71 10 -62 -8 4 -33 29 -55
56 -24 30 -40 44 -40 34 0 -27 87 -108 109 -101 12 3 21 -2 28 -17 6 -13 27
-43 48 -68 21 -25 46 -64 56 -86 9 -23 22 -45 28 -48 5 -4 20 -21 33 -39 l23
-32 -49 35 c-44 32 -49 33 -61 17 -6 -9 -17 -17 -24 -17 -8 0 -9 -5 -1 -19 14
-27 13 -31 -10 -31 -26 0 -26 -1 13 -44 29 -31 39 -36 79 -36 32 0 50 -6 63
-20 16 -18 16 -20 2 -20 -10 0 -17 -5 -17 -10 0 -7 -15 -9 -37 -5 -37 5 -27
-4 20 -19 29 -9 19 -26 -15 -26 -37 1 -68 20 -68 41 0 11 -13 13 -57 10 l-58
-3 30 -24 c17 -13 32 -19 33 -14 6 18 32 7 111 -47 2 -1 -1 -9 -7 -16 -26 -31
-107 5 -195 86 -28 26 -46 35 -72 35 -40 0 -45 -10 -12 -27 20 -10 19 -11 -13
-6 l-35 5 27 -23 c15 -12 44 -31 65 -42 21 -11 60 -37 86 -57 38 -30 44 -38
28 -38 -12 0 -21 -6 -21 -13 0 -26 37 -57 67 -57 16 0 37 -6 46 -12 21 -16 39
-75 26 -84 -12 -7 -60 23 -56 35 1 5 -22 27 -50 49 -29 21 -50 42 -47 45 11
11 -51 34 -76 27 -18 -4 -48 5 -110 37 -46 23 -85 41 -87 39 -9 -8 53 -52 94
-65 26 -9 49 -22 51 -30 3 -10 -2 -11 -19 -6 -37 12 -54 11 -52 -2 2 -7 -6
-13 -17 -13 -11 0 -20 7 -20 15 0 8 -3 15 -7 15 -15 -1 -43 -27 -36 -33 11
-12 -21 -8 -156 18 -13 2 -32 14 -43 25 -12 13 -31 20 -53 20 -28 0 -43 9 -75
41 -22 23 -40 46 -40 52 0 6 -16 7 -39 4 -29 -3 -48 1 -73 16 -72 44 -100 57
-108 52 -5 -3 -21 -7 -37 -9 -15 -2 -32 -5 -38 -7 -12 -4 -109 9 -130 18 -12
4 -13 9 -4 19 13 16 7 17 -51 14 -19 0 -67 -2 -107 -3 -39 -1 -75 -5 -79 -9
-11 -12 -72 -10 -95 3 -16 8 -18 16 -13 45 4 23 2 40 -7 51 -11 13 -12 17 -1
21 10 3 10 8 -3 22 -16 18 -17 18 -36 -1 -10 -10 -30 -19 -43 -19 -35 0 -89
26 -106 50 -8 13 -20 28 -26 34 -6 7 -13 28 -16 48 -3 31 0 38 20 47 34 16 84
13 112 -6 20 -14 46 -18 127 -18 55 0 99 -3 97 -6 -2 -4 -31 -12 -64 -20 -45
-10 -60 -17 -60 -30 0 -10 -5 -21 -10 -24 -15 -9 -2 -25 28 -36 20 -8 37 -6
69 6 41 16 46 16 81 -1 27 -13 32 -19 20 -22 -29 -6 -21 -19 15 -25 28 -4 107
23 107 37 0 3 3 11 6 20 5 12 0 16 -17 17 -13 0 -18 3 -12 6 9 3 11 17 7 43
l-6 39 55 26 c64 29 73 30 84 11 8 -14 40 -11 126 10 21 5 27 3 27 -10 0 -21
53 -22 70 -1 9 10 9 15 1 15 -18 0 -13 28 7 33 9 3 45 4 80 3 59 -2 76 4 50
20 -7 4 -42 9 -78 10 -99 5 -99 5 -105 14 -3 5 16 15 42 23 l48 15 -46 1 c-33
1 -49 -3 -53 -14 -3 -9 -18 -15 -35 -15 -19 0 -30 -6 -34 -19 -3 -12 -17 -20
-46 -25 -34 -5 -47 -2 -72 16 l-30 22 33 30 c21 18 28 30 21 33 -7 3 -13 9
-13 14 0 12 34 11 47 -2 7 -7 14 -6 24 3 23 23 49 29 49 13 0 -8 -11 -17 -25
-21 -14 -3 -25 -10 -25 -15 0 -15 23 -10 60 12 23 15 58 24 104 27 55 4 65 7
50 15 -17 10 -15 12 16 18 19 4 42 3 52 -2 14 -7 16 -6 12 5 -3 9 -14 18 -25
21 -10 4 -19 11 -19 16 0 16 -60 10 -67 -7 -3 -10 -13 -14 -25 -11 -21 6 -66
-6 -116 -31 -36 -19 -69 -7 -64 22 3 18 -9 21 -24 6 -11 -11 -44 -3 -44 10 0
4 10 11 23 15 20 7 21 7 3 12 -12 3 -25 -2 -32 -12 -14 -19 -55 -24 -91 -12
-18 6 -23 5 -23 -7 0 -12 -11 -16 -45 -16 -33 0 -45 -4 -45 -15 0 -15 -38 -34
-115 -60 -51 -16 -132 -36 -142 -33 -20 4 -63 -16 -82 -38 -26 -30 -36 -30
-64 0 -12 13 -31 26 -42 29 -16 4 -14 5 7 6 20 1 26 5 22 16 -5 11 1 15 24 15
16 0 35 7 42 15 7 8 23 15 35 15 13 0 37 11 53 25 31 26 52 32 52 15 0 -18 56
-11 75 10 10 11 25 20 33 20 11 0 12 3 3 14 -10 11 -7 22 11 50 13 20 27 36
32 36 5 0 18 7 28 17 17 15 17 17 2 35 -19 20 -34 23 -34 7 0 -7 -13 -25 -30
-40 -30 -29 -50 -37 -50 -20 0 12 -76 30 -99 24 -22 -6 -39 16 -21 27 7 4 20
6 29 5 9 -1 10 0 3 2 -20 7 -9 28 16 31 13 2 25 -3 28 -12 10 -27 38 -17 56
18 l16 34 -36 6 c-20 3 -52 6 -70 6 -19 0 -31 4 -27 10 3 5 29 9 58 9 81 -1
160 14 165 31 3 8 1 12 -3 8 -4 -4 -24 0 -44 8 -20 8 -46 12 -58 9 -24 -6 -28
1 -15 22 10 16 133 33 202 28 95 -7 142 -7 230 3 89 9 107 8 178 -10z m-1079
-40 c21 -3 28 -1 24 9 -6 17 21 17 67 0 57 -20 59 -23 55 -87 -2 -33 1 -63 7
-66 5 -4 4 -13 -5 -22 -8 -10 -17 -25 -20 -35 -4 -10 -21 -25 -38 -35 -18 -9
-40 -25 -51 -34 -25 -25 -41 -23 -26 2 11 17 10 22 -2 30 -19 12 -22 8 -22
-33 0 -26 -10 -44 -43 -80 -23 -26 -48 -60 -55 -76 -10 -26 -16 -29 -41 -24
-22 4 -29 2 -29 -11 0 -9 -4 -16 -10 -16 -5 0 -10 -10 -10 -22 0 -17 3 -19 12
-10 16 16 50 15 74 -2 26 -20 6 -40 -40 -38 -19 1 -38 -3 -41 -8 -3 -5 -21 -6
-40 -3 -28 5 -35 2 -35 -11 0 -18 -46 -40 -62 -30 -7 4 -8 2 -4 -4 4 -7 1 -12
-7 -12 -9 0 -14 11 -15 31 -1 40 -11 49 -26 25 -31 -53 -75 -71 -61 -25 4 11
2 19 -4 19 -19 0 -12 22 9 27 23 6 25 14 8 31 -9 9 -6 12 16 12 24 0 26 2 16
15 -15 19 -3 38 21 32 12 -3 19 0 19 9 0 8 9 14 20 14 13 0 18 5 14 15 -4 8
-2 15 3 15 5 0 35 18 67 41 43 30 54 44 47 53 -6 7 -8 16 -4 20 4 3 8 30 10
58 2 28 8 57 14 64 8 10 3 17 -21 29 -31 16 -31 17 -14 36 10 11 24 17 31 15
7 -3 13 -1 13 4 0 6 11 10 25 10 30 0 33 20 5 38 -31 19 -24 34 13 28 20 -4
45 1 67 12 25 12 36 14 38 6 2 -7 16 -14 31 -16z m203 15 c20 -18 25 -57 6
-51 -7 3 -15 13 -16 24 -2 10 -11 25 -20 32 -12 9 -12 12 -2 12 7 0 22 -7 32
-17z m68 -3 c-19 -13 -30 -13 -30 0 0 6 10 10 23 10 18 0 19 -2 7 -10z m130 2
c0 -8 -49 -35 -60 -33 -9 2 -6 26 5 33 14 10 55 10 55 0z m-742 -49 c5 -18
-10 -16 -34 2 -18 15 -18 15 5 13 14 -2 26 -9 29 -15z m162 -4 c0 -11 -27 -12
-34 0 -3 4 -3 11 0 14 8 8 34 -3 34 -14z m1541 -29 c13 -10 19 -19 13 -20 -19
0 -64 26 -57 33 10 11 19 8 44 -13z m-1115 -27 c-10 -10 -19 5 -10 18 6 11 8
11 12 0 2 -7 1 -15 -2 -18z m803 18 c9 -6 10 -10 2 -16 -16 -9 -44 2 -36 15 8
12 16 12 34 1z m-1379 -62 c0 -12 7 -19 19 -19 23 0 36 -16 22 -25 -11 -6 -51
13 -63 30 -14 18 -9 45 7 39 8 -4 15 -15 15 -25z m1841 3 c26 -12 49 -28 53
-37 7 -19 -8 -20 -23 -1 -7 8 -42 22 -79 32 -37 9 -71 21 -77 27 -18 17 77 1
126 -21z m-1732 -16 c9 -10 8 -15 -4 -20 -17 -6 -45 2 -45 13 0 23 32 28 49 7z
m1031 4 c0 -5 -4 -10 -10 -10 -5 0 -10 5 -10 10 0 6 5 10 10 10 6 0 10 -4 10
-10z m130 -5 c0 -8 -4 -15 -9 -15 -13 0 -22 16 -14 24 11 11 23 6 23 -9z
m-1388 -112 c19 -24 -2 -27 -25 -5 -26 27 -31 93 -7 103 12 5 16 -4 18 -40 2
-25 8 -51 14 -58z m76 82 c3 -10 0 -15 -7 -11 -7 5 -8 1 -4 -10 5 -14 3 -16
-11 -11 -10 4 -22 7 -27 7 -5 0 -2 11 7 25 18 28 37 28 42 0z m-268 5 c0 -5
-5 -10 -11 -10 -5 0 -7 5 -4 10 3 6 8 10 11 10 2 0 4 -4 4 -10z m950 -45 c-7
-8 -17 -12 -23 -8 -6 4 -3 11 8 19 23 17 32 10 15 -11z m118 9 c12 -4 22 -13
22 -21 0 -11 -8 -12 -35 -7 -30 5 -34 4 -29 -10 5 -13 -1 -16 -27 -15 -34 0
-34 0 -11 16 12 8 22 22 22 29 0 15 21 18 58 8z m-980 -51 c-2 -12 -11 -17
-23 -15 -25 5 -29 8 -20 21 11 19 47 13 43 -6z m262 7 c0 -5 -4 -10 -10 -10
-5 0 -10 5 -10 10 0 6 5 10 10 10 6 0 10 -4 10 -10z m-350 -21 c0 -5 -7 -9
-15 -9 -15 0 -20 12 -9 23 8 8 24 -1 24 -14z m1098 -21 c2 -10 -6 -19 -18 -23
-28 -9 -34 -2 -20 25 13 23 33 22 38 -2z m-1151 -17 c10 -16 6 -24 -23 -55
-19 -20 -41 -36 -49 -36 -22 0 -19 9 10 32 14 11 25 30 25 42 0 39 18 47 37
17z m371 -8 c3 -17 -3 -23 -30 -28 -18 -4 -41 -16 -51 -26 -10 -11 -23 -20
-30 -20 -21 -3 -51 -6 -79 -7 -16 -1 -29 -9 -32 -20 -5 -16 -17 -19 -69 -20
-103 -1 -119 13 -73 63 33 35 62 30 59 -10 -2 -27 -1 -28 11 -12 16 20 38 23
30 3 -3 -8 -1 -17 5 -20 11 -7 51 40 51 60 0 8 11 14 25 14 23 0 24 2 15 20
-12 22 -1 27 17 9 16 -16 105 -18 99 -3 -6 17 5 25 29 22 12 -2 21 -12 23 -25z
m493 -55 c-9 -26 -56 -57 -67 -45 -7 7 53 66 68 67 4 0 4 -10 -1 -22z m-191
-68 c0 -5 9 -10 20 -10 24 0 27 -15 4 -24 -25 -9 -94 -7 -94 3 0 12 40 41 57
41 7 0 13 -4 13 -10z m-617 -24 c6 -16 -2 -28 -14 -20 -12 7 -11 34 0 34 5 0
11 -6 14 -14z m-53 -6 c0 -5 -7 -10 -15 -10 -8 0 -15 5 -15 10 0 6 7 10 15 10
8 0 15 -4 15 -10z m1386 -5 c-23 -17 -36 -19 -36 -6 0 11 18 19 40 20 11 0 10
-3 -4 -14z m-528 -25 c10 -16 10 -20 0 -20 -18 1 -49 26 -41 33 12 13 28 7 41
-13z m647 -28 c-2 -3 -12 -1 -22 2 -15 6 -15 9 -3 16 13 8 35 -8 25 -18z
m-815 -13 c0 -5 -7 -6 -15 -3 -8 4 -15 13 -15 21 0 13 3 13 15 3 8 -7 15 -16
15 -21z m980 16 c0 -10 -10 -15 -30 -15 -29 0 -38 9 -23 23 13 13 53 7 53 -8z
m-893 -32 c-9 -9 -19 -14 -23 -11 -10 10 6 28 24 28 15 0 15 -1 -1 -17z m953
13 c0 -3 -4 -8 -10 -11 -5 -3 -10 -1 -10 4 0 6 5 11 10 11 6 0 10 -2 10 -4z
m-870 -45 c0 -12 -39 -21 -45 -11 -3 5 1 11 7 13 21 9 38 8 38 -2z m265 -1
c-3 -5 -13 -10 -21 -10 -8 0 -12 5 -9 10 3 6 13 10 21 10 8 0 12 -4 9 -10z
m-368 -36 c-3 -3 -12 -4 -19 -1 -8 3 -5 6 6 6 11 1 17 -2 13 -5z m588 -4 c3
-5 -1 -10 -9 -10 -9 0 -16 5 -16 10 0 6 4 10 9 10 6 0 13 -4 16 -10z m-180
-50 c-3 -5 -13 -10 -21 -10 -8 0 -14 5 -14 10 0 6 9 10 21 10 11 0 17 -4 14
-10z m139 -15 c-4 -8 -12 -15 -20 -15 -17 0 -18 17 -1 23 22 9 27 7 21 -8z
m-1554 -5 c0 -5 -5 -10 -11 -10 -5 0 -7 5 -4 10 3 6 8 10 11 10 2 0 4 -4 4
-10z m1160 -76 c0 -9 -5 -14 -12 -12 -18 6 -21 28 -4 28 9 0 16 -7 16 -16z
m1820 -64 c0 -5 -4 -10 -10 -10 -5 0 -10 5 -10 10 0 6 5 10 10 10 6 0 10 -4
10 -10z m-1630 -20 c6 -11 7 -20 2 -20 -10 0 -32 21 -32 32 0 16 19 8 30 -12z
m1708 -48 c2 -7 -3 -12 -12 -12 -9 0 -16 7 -16 16 0 17 22 14 28 -4z m-18 -42
c0 -5 -2 -10 -4 -10 -3 0 -8 5 -11 10 -3 6 -1 10 4 10 6 0 11 -4 11 -10z
m-1050 -20 c12 -8 9 -10 -13 -10 -16 0 -26 4 -22 10 8 12 16 12 35 0z m163
-66 c52 -33 58 -44 23 -44 -36 0 -55 10 -50 25 4 9 -10 15 -43 20 -41 6 -45 9
-31 19 25 18 48 14 101 -20z m905 15 c12 -19 11 -20 -15 -17 -17 2 -29 10 -31
21 -5 24 30 22 46 -4z m-143 -43 c11 -7 31 -17 43 -21 21 -6 23 -4 17 14 -7
23 7 28 23 9 16 -20 19 -53 4 -50 -9 1 -10 -6 -6 -25 6 -22 4 -25 -10 -20 -10
4 -28 7 -41 7 -25 0 -74 41 -94 78 -11 20 -10 22 16 22 16 0 37 -6 48 -14z
m-4854 -79 c-3 -67 -16 -100 -34 -94 -17 5 -9 115 10 144 22 34 28 20 24 -50z
m4683 -2 c15 -8 34 -15 41 -15 15 0 139 -120 131 -127 -5 -5 -50 7 -123 33
-30 11 -43 21 -43 34 0 14 -10 21 -37 25 -60 10 -71 15 -77 30 -7 20 7 19 51
-5 45 -24 54 -18 23 15 -27 29 -12 34 34 10z m310 -33 c-7 -37 -24 -43 -24 -9
0 21 19 51 27 43 2 -1 0 -17 -3 -34z m-604 19 c0 -5 -9 -7 -20 -4 -11 3 -20 7
-20 9 0 2 9 4 20 4 11 0 20 -4 20 -9z m145 -6 l30 -13 -30 -1 c-16 0 -41 6
-55 14 l-25 14 25 0 c14 0 39 -6 55 -14z m32 -62 c-9 -9 -23 -13 -36 -8 -29 9
-26 23 7 27 37 5 47 -1 29 -19z m-117 3 c0 -8 -8 -16 -17 -19 -10 -2 1 -4 24
-4 26 1 49 -5 60 -16 16 -14 28 -15 78 -7 65 11 73 9 50 -10 -11 -9 -12 -17
-4 -32 12 -22 0 -36 -31 -39 -8 -1 -28 -3 -45 -5 -49 -5 -95 6 -95 21 0 8 -4
15 -10 15 -5 0 -7 6 -4 14 6 15 -73 30 -111 20 -13 -3 -26 -1 -29 5 -5 7 5 11
28 11 25 0 36 4 36 15 0 9 -9 15 -22 15 -13 0 -34 4 -48 7 -23 7 -21 8 15 14
77 12 125 10 125 -5z m346 -80 l49 -25 -34 0 c-32 -1 -71 21 -71 41 0 11 0 11
56 -16z m15 -110 c-25 -14 -26 -15 -6 -30 26 -19 10 -36 -35 -36 -44 0 -70 -8
-70 -21 0 -5 7 -9 16 -9 16 0 53 -37 54 -54 0 -4 -21 -5 -47 -2 -81 12 -81 12
-79 64 0 26 5 50 11 54 6 5 5 12 -3 20 -29 29 4 54 78 60 44 4 107 -32 81 -46z
m150 11 c19 -8 43 -18 53 -21 10 -4 17 -9 14 -11 -3 -3 -31 4 -63 15 -32 11
-73 20 -90 20 -18 0 -38 6 -44 13 -9 11 -1 12 43 6 30 -4 69 -14 87 -22z
m-381 3 c0 -5 -15 -9 -32 -9 l-33 1 30 8 c17 4 31 8 33 9 1 0 2 -3 2 -9z m200
-220 c12 -7 11 -10 -5 -16 -11 -4 -23 -12 -27 -18 -6 -7 -11 -6 -18 4 -16 25
-12 30 30 39 3 0 12 -3 20 -9z m68 -30 l16 -25 -29 25 c-17 14 -32 27 -35 29
-3 2 3 2 14 0 10 -2 26 -15 34 -29z m-946 -27 c9 -11 13 -25 9 -37 -7 -17 -9
-16 -24 7 -28 44 -17 66 15 30z m-47 -22 c8 -17 11 -32 6 -35 -11 -7 -26 11
-35 42 -11 32 11 27 29 -7z m105 -31 c0 -5 -6 -10 -14 -10 -8 0 -18 5 -21 10
-3 6 3 10 14 10 12 0 21 -4 21 -10z m-516 -38 c30 -13 40 -14 44 -4 2 6 8 12
14 12 5 0 7 -8 4 -18 -6 -16 3 -20 66 -32 79 -14 130 -49 109 -74 -9 -11 -6
-16 16 -25 15 -6 35 -15 43 -20 8 -5 30 -16 48 -25 30 -14 32 -13 32 5 0 20
15 26 25 9 10 -16 27 0 22 21 -4 15 -1 18 18 13 15 -4 24 0 28 10 9 24 33 19
57 -11 20 -26 21 -20 4 22 -3 8 -1 15 5 15 19 0 61 -31 61 -45 0 -8 14 -25 32
-39 30 -23 31 -26 18 -50 -7 -14 -22 -28 -32 -32 -12 -3 -17 -12 -14 -21 3 -8
6 -18 6 -23 0 -4 21 -13 48 -21 26 -7 52 -18 57 -25 6 -6 23 -15 39 -18 17 -4
45 -21 64 -37 24 -21 38 -27 45 -20 16 16 47 -6 47 -34 0 -17 9 -29 28 -39 16
-8 34 -21 40 -29 7 -8 22 -12 35 -10 35 7 53 -23 86 -142 44 -165 101 -317
126 -340 12 -11 35 -30 51 -42 l29 -23 -29 10 c-16 6 -34 14 -40 18 -12 7 -18
8 -59 10 -26 2 -41 14 -167 136 -44 42 -90 66 -130 66 -17 0 -57 11 -90 25
-33 14 -76 25 -95 25 -42 0 -126 19 -139 31 -18 16 2 20 41 9 21 -7 50 -10 63
-8 66 11 -73 27 -290 34 -327 11 -344 9 -431 -36 -12 -6 -252 -16 -296 -11 -7
0 -10 8 -6 16 5 14 -6 15 -78 10 -46 -4 -89 -8 -95 -10 -18 -5 -157 25 -172
38 -10 8 -12 7 -10 -2 3 -15 -29 -24 -38 -10 -3 5 2 9 11 9 9 0 13 5 10 10 -4
6 -23 10 -43 9 -20 0 -66 7 -102 15 -36 9 -81 16 -102 16 -20 0 -38 4 -40 10
-1 5 -25 12 -52 14 -63 6 -146 36 -146 53 0 12 -5 14 -40 17 -11 1 -14 13 -13
46 2 49 18 67 66 77 16 3 30 11 31 17 16 64 46 127 73 155 18 18 35 49 39 68
4 21 16 41 32 51 13 9 30 30 37 47 13 29 16 30 82 32 37 1 113 -2 168 -8 84
-9 105 -8 129 5 16 8 33 13 38 10 4 -3 8 -1 8 5 0 6 19 8 48 4 38 -4 51 -2 62
12 8 10 15 21 15 24 0 3 22 6 50 6 38 0 50 4 53 16 3 18 40 28 106 30 22 1 52
4 66 8 38 11 130 2 174 -17z m759 -32 c29 -32 30 -47 2 -37 -22 9 -54 67 -47
85 5 14 6 14 11 0 3 -9 19 -31 34 -48z m80 6 c14 -14 20 -27 15 -28 -7 -3 -4
-16 6 -35 19 -38 21 -76 4 -71 -19 6 -59 68 -65 100 -3 15 -12 33 -19 39 -8 6
-14 18 -14 25 0 19 41 2 73 -30z m565 -52 c46 -13 17 -36 -75 -60 -35 -9 -59
-11 -62 -5 -4 5 -19 14 -34 20 -44 17 -31 29 41 36 37 3 74 8 82 9 8 2 17 4
20 5 3 0 15 -2 28 -5z m-33 -74 c6 -9 -44 -40 -65 -40 -12 0 40 49 52 50 4 0
9 -4 13 -10z m205 -490 c0 -5 -2 -10 -4 -10 -3 0 -8 5 -11 10 -3 6 -1 10 4 10
6 0 11 -4 11 -10z m-49 -84 c-7 -8 -21 -12 -31 -9 -27 7 -15 23 17 23 21 0 23
-3 14 -14z m-1154 -57 c89 -21 93 -26 33 -35 -50 -9 -39 -11 125 -22 282 -20
396 -51 476 -133 53 -55 77 -105 89 -191 11 -75 5 -168 -11 -168 -5 0 -8 3 -8
8 3 20 -2 36 -9 27 -4 -5 -28 -21 -55 -35 -29 -15 -45 -30 -42 -38 4 -12 -19
-64 -47 -103 -16 -23 -4 -47 28 -55 35 -9 97 23 102 51 10 60 24 97 33 88 7
-7 2 -42 -12 -101 -20 -85 -20 -138 0 -116 5 5 21 42 35 81 47 134 83 184 121
169 8 -3 16 0 19 7 3 9 8 8 15 -3 14 -20 14 -43 -1 -34 -7 5 -8 3 -4 -5 12
-19 13 -104 2 -126 -6 -11 -13 -45 -17 -75 -4 -30 -15 -107 -24 -170 -8 -63
-17 -185 -20 -270 l-4 -155 14 95 c8 52 14 115 14 140 0 77 23 210 36 210 6 0
23 -16 37 -36 l26 -36 -2 31 c-1 16 -4 33 -8 37 -4 3 -3 14 2 23 13 25 -3 45
-30 36 -21 -7 -22 -5 -15 27 4 18 15 47 24 63 14 24 17 55 16 158 0 125 0 127
22 127 12 0 27 8 32 18 6 9 11 13 11 9 0 -5 13 5 29 21 66 66 155 79 220 33
39 -28 54 -83 72 -261 20 -194 16 -225 -40 -390 -27 -80 -53 -163 -57 -185
-12 -67 -64 -187 -104 -241 -21 -28 -60 -66 -87 -83 -47 -32 -50 -33 -122 -26
-41 3 -79 9 -84 12 -5 3 -7 20 -4 37 3 18 -1 39 -8 49 -12 16 -13 16 -19 -5
-3 -13 -6 -42 -6 -66 0 -23 -4 -50 -9 -60 -23 -45 -30 -72 -36 -134 -4 -36
-13 -74 -20 -85 -8 -10 -15 -26 -15 -36 0 -13 -7 -17 -32 -15 -31 3 -33 1 -30
-29 3 -39 -24 -47 -33 -10 -4 21 -13 125 -14 175 -1 13 -7 22 -16 22 -11 0
-14 -7 -10 -23 6 -23 8 -79 4 -107 -1 -8 1 -24 5 -36 4 -15 -1 -29 -20 -49
-24 -26 -27 -27 -36 -10 -9 14 -6 22 12 35 14 10 20 22 15 29 -5 9 -11 8 -25
-4 -12 -11 -26 -14 -44 -9 -22 5 -28 3 -33 -15 -4 -15 -13 -21 -34 -21 -15 0
-31 5 -34 10 -9 14 -35 13 -35 -2 0 -6 -7 -19 -16 -29 -9 -10 -16 -33 -17 -52
l-1 -35 -18 23 c-10 13 -18 34 -18 48 0 40 -22 51 -61 29 -41 -23 -59 -18 -59
14 0 19 6 26 30 31 17 3 31 11 31 17 1 6 3 18 4 26 3 32 18 70 27 70 5 0 6 5
3 10 -3 6 2 13 12 16 10 3 36 14 59 25 23 10 48 19 55 19 11 0 14 13 14 48 0
26 5 56 12 68 8 12 11 29 7 38 -5 12 0 19 15 23 25 6 29 43 5 43 -11 0 -15 6
-11 19 6 22 -16 35 -44 26 -13 -4 -19 -1 -19 9 0 19 -20 22 -20 4 -1 -7 -12 1
-25 17 -20 23 -27 27 -34 16 -7 -10 -12 -8 -24 9 -8 12 -23 23 -33 24 -10 2
-23 18 -30 37 -7 19 -13 30 -13 26 -1 -4 -13 4 -28 18 -15 14 -31 25 -35 25
-12 0 -39 60 -33 70 3 6 13 10 21 10 8 0 14 6 14 14 0 8 -22 18 -62 26 -35 7
-100 21 -146 31 -88 20 -109 23 -99 13 6 -6 -11 -30 -50 -71 -31 -32 -79 -30
-134 6 -24 16 -61 35 -81 42 -21 7 -38 17 -38 21 0 4 -7 8 -16 8 -9 0 -12 5
-8 12 5 8 -2 9 -26 5 -18 -4 -40 -7 -49 -7 -14 0 -14 -2 -1 -10 10 -6 3 -8
-22 -3 -29 4 -39 2 -44 -11 -9 -23 -89 -23 -98 0 -4 9 -9 14 -12 11 -3 -3 -33
10 -67 29 -34 19 -72 38 -85 44 -32 14 -72 2 -82 -24 -4 -11 -18 -28 -30 -36
-12 -8 -39 -27 -60 -42 -31 -22 -45 -25 -79 -21 -49 7 -59 28 -42 89 15 51 57
97 104 113 31 10 39 10 52 -2 17 -18 59 -11 51 8 -2 7 6 21 18 32 18 16 22 29
21 76 0 37 4 58 12 61 7 3 13 15 13 26 0 11 4 20 10 20 27 0 86 181 74 227
-16 61 130 120 189 77 14 -11 36 -41 48 -69 82 -183 101 -219 133 -252 30 -32
36 -35 36 -18 0 11 -20 65 -45 120 -51 114 -85 239 -68 256 7 7 13 -3 17 -36
6 -37 17 -55 57 -95 45 -45 73 -58 104 -50 20 5 80 -1 85 -9 3 -4 12 -8 20 -8
8 -1 55 -6 104 -12 60 -7 94 -7 102 0 8 7 23 5 47 -7 29 -14 53 -15 151 -9
112 7 117 8 101 25 -15 17 -14 19 10 27 27 9 27 9 -25 42 -41 27 -51 38 -47
55 5 18 4 19 -6 5 -8 -14 -15 -15 -34 -6 -30 13 -29 19 5 34 15 7 36 29 47 48
25 47 46 58 73 39 25 -17 30 -39 7 -30 -8 3 -15 1 -15 -4 0 -11 10 -13 85 -15
28 -1 69 -6 93 -10 37 -7 42 -6 42 11 0 28 -119 126 -206 170 -41 20 -74 41
-74 46 0 16 81 8 118 -12 47 -25 71 -46 102 -90 27 -39 56 -74 83 -102 22 -23
50 -24 43 0 -2 9 -7 31 -11 47 -9 47 -106 141 -169 165 -15 5 -24 14 -21 20 8
13 42 13 50 0 3 -5 10 -10 15 -10 16 0 -9 54 -33 72 -21 17 -21 18 -2 18 19 1
19 1 2 11 -38 22 -177 38 -334 39 -111 0 -164 4 -169 11 -5 9 7 10 44 5 60 -8
73 10 15 19 -21 3 -51 10 -68 14 -30 9 -29 9 10 10 22 1 47 6 55 11 19 13 30
12 87 -1z m158 -19 c3 -5 -3 -10 -15 -10 -12 0 -18 5 -15 10 3 6 10 10 15 10
5 0 12 -4 15 -10z m985 -10 c0 -5 -7 -10 -15 -10 -8 0 -15 5 -15 10 0 6 7 10
15 10 8 0 15 -4 15 -10z m-2895 -30 c3 -6 -4 -10 -18 -10 -14 0 -39 -3 -56 -6
-19 -4 -31 -2 -31 4 0 17 95 28 105 12z m2985 -36 c0 -11 -5 -14 -16 -10 -9 3
-18 6 -20 6 -3 0 -2 5 1 10 10 16 35 12 35 -6z m-198 -39 c0 -5 -5 -11 -11
-13 -6 -2 -11 4 -11 13 0 9 5 15 11 13 6 -2 11 -8 11 -13z m138 -95 c0 -11 -6
-20 -13 -20 -8 0 -19 -11 -25 -25 -6 -14 -17 -25 -24 -24 -21 2 -64 17 -50 18
23 2 27 3 44 12 9 5 20 25 24 44 5 30 9 33 25 24 10 -5 19 -19 19 -29z m-127
4 c20 -27 17 -40 -6 -31 -14 5 -30 57 -18 57 3 0 14 -12 24 -26z m-1735 -72
c-2 -13 -15 -18 -51 -20 -53 -3 -66 15 -17 24 16 4 27 11 24 16 -3 5 -3 16 0
25 6 14 9 13 27 -6 11 -12 19 -29 17 -39z m762 -17 c0 -8 -7 -15 -15 -15 -8 0
-15 7 -15 15 0 8 7 15 15 15 8 0 15 -7 15 -15z m-1605 -15 c3 -5 -1 -10 -9
-10 -9 0 -16 5 -16 10 0 6 4 10 9 10 6 0 13 -4 16 -10z m2650 -20 c10 -11 15
-20 11 -20 -14 0 -46 21 -46 30 0 16 16 11 35 -10z m-1185 -87 c0 -10 -5 -11
-19 -3 -11 5 -31 10 -45 10 -33 0 -35 31 -3 46 18 8 26 6 45 -14 12 -14 22
-31 22 -39z m-1294 49 c6 -4 13 -17 16 -28 5 -18 -1 -23 -32 -33 -56 -17 -61
-15 -49 16 18 49 39 63 65 45z m-366 -32 c0 -5 -5 -10 -11 -10 -5 0 -7 5 -4
10 3 6 8 10 11 10 2 0 4 -4 4 -10z m455 -10 c3 -6 -1 -7 -9 -4 -18 7 -21 14
-7 14 6 0 13 -4 16 -10z m2233 -12 c15 -15 16 -58 2 -58 -16 0 -70 29 -70 38
0 14 23 32 40 32 9 0 21 -5 28 -12z m-2192 -300 c36 -39 84 -113 84 -129 0
-26 -46 -101 -75 -124 -18 -13 -38 -39 -45 -57 -8 -18 -17 -35 -20 -38 -4 -3
-19 -24 -33 -47 -15 -23 -39 -49 -55 -57 -93 -48 -405 -46 -535 3 -12 5 -25 9
-30 10 -4 0 -32 16 -62 36 -60 38 -71 41 -78 23 -4 -8 -6 -7 -6 4 -1 9 4 18
10 20 6 2 1 15 -11 31 -24 30 -17 36 12 10 23 -21 25 2 2 28 -9 10 -14 25 -11
33 5 12 15 6 43 -22 32 -32 38 -35 43 -19 4 10 11 18 16 17 6 0 13 14 16 33 9
54 51 100 106 117 51 15 122 18 143 5 7 -4 29 -3 49 3 20 6 80 19 133 28 66
12 103 23 114 36 10 10 23 18 30 18 7 0 26 11 42 25 26 21 64 42 83 44 3 1 19
-14 35 -31z m-1466 -124 c0 -8 -4 -12 -10 -9 -5 3 -10 10 -10 16 0 5 5 9 10 9
6 0 10 -7 10 -16z m79 -44 l-1 -25 -8 25 c-4 14 -8 32 -9 40 -1 13 0 13 9 0 5
-8 9 -26 9 -40z m-60 -28 c0 -24 -1 -25 -9 -7 -12 28 -12 47 0 40 6 -3 10 -18
9 -33z m641 -227 c-7 -8 -17 -15 -22 -15 -6 0 -5 7 2 15 7 8 17 15 22 15 6 0
5 -7 -2 -15z m19 -43 c10 -19 109 -44 166 -42 126 4 315 -2 315 -10 0 -6 -9
-10 -19 -10 -24 0 -36 -29 -15 -37 12 -4 11 -8 -6 -20 -13 -9 -19 -21 -15 -32
6 -20 -59 -96 -74 -87 -5 3 -11 3 -13 -2 -10 -24 -85 -56 -135 -57 -29 -1 -56
-5 -60 -8 -14 -14 -34 -6 -43 17 -6 17 -19 26 -47 31 -53 10 -73 22 -73 46 0
19 -16 59 -29 69 -19 16 -33 61 -27 87 16 64 55 93 75 55z m1784 -128 c17 4
34 12 39 18 5 9 14 7 35 -8 30 -23 75 -93 67 -106 -11 -17 -70 -7 -97 16 -16
14 -42 28 -58 31 -26 6 -29 11 -28 43 1 20 3 29 6 18 4 -14 11 -17 36 -12z
m57 -217 c10 -3 7 -6 -8 -6 -22 -1 -22 -2 -8 -23 9 -12 16 -33 16 -46 0 -22
-3 -23 -52 -20 l-53 3 -3 51 c-2 39 2 56 18 77 l21 27 27 -29 c15 -16 34 -31
42 -34z m0 48 c10 -12 10 -15 -4 -15 -9 0 -16 7 -16 15 0 8 2 15 4 15 2 0 9
-7 16 -15z m-421 -54 c23 -13 23 -13 4 -32 -26 -27 -146 -27 -228 -1 -108 35
-79 48 110 46 52 0 100 -6 114 -13z m-356 -211 c30 -24 46 -25 53 -5 8 19 134
21 163 3 15 -9 26 -8 54 5 48 23 113 22 144 -3 23 -18 27 -18 46 -5 27 19 66
19 86 0 14 -11 25 -12 60 -3 39 10 46 9 57 -7 8 -10 14 -27 14 -38 0 -17 3
-16 31 8 37 31 48 24 56 -33 4 -31 1 -44 -15 -60 l-20 -20 46 -7 c26 -4 52
-11 59 -17 8 -6 19 -5 33 2 24 13 76 -2 95 -27 6 -8 19 -13 30 -12 42 4 53 -1
48 -21 -6 -23 -14 -25 -31 -8 -9 9 -12 7 -12 -10 0 -16 5 -22 18 -20 10 2 17
-3 18 -12 0 -8 4 -25 8 -38 6 -17 3 -27 -9 -36 -18 -13 -15 -44 8 -68 7 -7 24
-36 39 -64 24 -46 25 -53 12 -72 -10 -15 -14 -43 -12 -99 l3 -78 33 3 c17 1
32 -2 32 -8 0 -5 -6 -10 -14 -10 -26 0 -26 -29 0 -46 l25 -17 -21 -14 c-20
-14 -24 -13 -46 8 -14 13 -22 29 -20 36 10 24 -6 43 -35 43 l-29 0 20 -20 c28
-28 26 -44 -5 -36 -21 5 -27 2 -37 -19 -9 -21 -9 -28 1 -34 9 -6 7 -10 -8 -14
-14 -3 -21 -13 -21 -30 0 -29 -33 -46 -54 -28 -10 8 -12 4 -8 -18 3 -22 -1
-29 -16 -33 -11 -3 -22 -16 -24 -29 -5 -33 -26 -35 -38 -4 -7 19 -7 31 1 41 6
7 9 21 6 31 -4 16 -6 15 -12 -4 -8 -26 -17 -28 -47 -12 -29 16 -34 2 -7 -20
13 -11 21 -23 17 -27 -5 -4 -16 0 -26 9 -10 10 -24 17 -30 17 -6 0 -18 10 -26
22 -16 22 -16 22 -16 -10 0 -39 -22 -43 -38 -7 -6 14 -16 25 -22 25 -7 0 -8
-6 -1 -19 9 -17 6 -19 -30 -19 -29 -1 -42 4 -46 16 -9 23 -25 33 -38 22 -6 -5
-22 2 -40 16 -16 13 -24 24 -17 24 17 0 15 57 -2 63 -8 3 -17 -1 -20 -9 -6
-17 -42 -19 -52 -3 -3 6 -1 15 6 19 15 9 5 30 -15 30 -8 0 -22 14 -30 31 -12
22 -21 28 -34 24 -11 -3 -21 0 -24 9 -7 18 1 26 29 26 13 0 26 5 29 10 3 6 22
10 41 10 19 0 34 5 34 10 0 6 10 10 22 10 39 0 126 49 162 92 l36 42 -27 22
c-23 18 -28 30 -28 66 l0 43 -70 6 c-39 4 -78 2 -89 -3 -11 -6 -41 -7 -75 -2
-31 4 -99 8 -151 9 -99 1 -144 9 -170 30 -8 6 -34 17 -58 25 -47 15 -122 84
-122 112 0 10 -7 21 -15 24 -20 8 -9 24 16 24 19 0 19 2 -5 33 -29 38 -36 119
-13 151 12 17 17 17 50 5 33 -12 39 -11 54 4 23 22 45 21 76 -3z m-217 -65 c3
-13 3 -33 -1 -45 -6 -19 -9 -20 -20 -9 -14 15 -27 74 -18 83 10 10 33 -7 39
-29z m1779 -185 c-3 -5 -11 -10 -16 -10 -6 0 -7 5 -4 10 3 6 11 10 16 10 6 0
7 -4 4 -10z m-1675 -421 c0 -6 9 -9 19 -6 11 3 26 -2 35 -12 14 -15 13 -20 -4
-46 -22 -34 -43 -44 -78 -37 -18 3 -20 7 -10 13 11 7 10 11 -2 18 -17 12 -38
-3 -51 -36 -9 -26 -43 -31 -63 -10 -14 14 -10 73 5 83 13 8 61 17 86 17 14 -1
20 4 16 13 -4 10 3 14 21 14 14 0 26 -5 26 -11z m446 -176 c-3 -8 -6 -22 -6
-30 0 -11 -8 -7 -28 13 -23 25 -26 31 -13 41 18 16 55 -2 47 -24z m714 -40 c0
-51 -11 -52 -15 -1 -3 31 1 48 11 48 2 0 4 -21 4 -47z m-715 -23 c3 -5 3 -15
-1 -21 -6 -11 -23 6 -24 24 0 10 18 9 25 -3z m865 -100 c0 -5 -4 -10 -10 -10
-5 0 -10 5 -10 10 0 6 5 10 10 10 6 0 10 -4 10 -10z m-650 -28 c0 -15 -2 -15
-10 -2 -13 20 -13 33 0 25 6 -3 10 -14 10 -23z m350 -32 c6 -11 7 -20 2 -20
-10 0 -32 21 -32 32 0 16 19 8 30 -12z m-520 -860 c0 -5 -5 -10 -11 -10 -5 0
-7 5 -4 10 3 6 8 10 11 10 2 0 4 -4 4 -10z m-47 -46 c3 -3 3 -12 0 -20 -4 -11
-9 -12 -19 -3 -8 6 -14 15 -14 20 0 10 24 12 33 3z m1744 -80 c-9 -9 -28 6
-21 18 4 6 10 6 17 -1 6 -6 8 -13 4 -17z m854 -89 c-1 -15 -24 -12 -29 3 -3 9
2 13 12 10 10 -1 17 -7 17 -13z m64 -5 c-3 -5 -10 -10 -16 -10 -5 0 -9 5 -9
10 0 6 7 10 16 10 8 0 12 -4 9 -10z m-2655 -99 c0 -10 -7 -24 -15 -31 -12 -10
-15 -10 -15 4 0 9 -12 19 -27 22 l-28 7 35 12 c40 14 50 11 50 -14z m60 -101
c0 -5 -5 -10 -11 -10 -5 0 -7 5 -4 10 3 6 8 10 11 10 2 0 4 -4 4 -10z m3137
-276 c-3 -3 -12 -4 -19 -1 -8 3 -5 6 6 6 11 1 17 -2 13 -5z m563 -28 c0 -2 -7
-6 -15 -10 -8 -3 -15 -1 -15 4 0 6 7 10 15 10 8 0 15 -2 15 -4z m-250 -236 c0
-5 -2 -10 -4 -10 -3 0 -8 5 -11 10 -3 6 -1 10 4 10 6 0 11 -4 11 -10z m-1704
-82 c49 -38 216 -176 277 -230 31 -27 74 -61 95 -75 20 -14 57 -42 81 -62 25
-20 70 -53 100 -73 48 -33 52 -38 30 -38 -39 0 -123 46 -172 95 -33 32 -47 41
-56 32 -6 -6 -11 -17 -11 -24 0 -7 -4 -13 -10 -13 -5 0 -10 6 -10 13 0 8 -9
22 -20 32 -11 10 -20 25 -20 34 0 9 -5 23 -10 31 -8 12 -13 13 -29 3 -27 -17
-71 -1 -71 26 0 13 -11 23 -35 31 -24 8 -35 18 -35 31 0 10 -4 19 -8 19 -12 0
-102 90 -102 101 0 4 7 6 16 2 14 -5 14 -3 3 15 -7 11 -23 26 -36 33 -22 12
-32 39 -14 39 4 0 21 -10 37 -22z m2167 -80 c4 -12 4 -24 2 -26 -7 -8 -35 20
-35 34 0 23 27 16 33 -8z m-595 -140 c-6 -18 -48 -30 -48 -13 0 32 11 45 32
34 10 -6 18 -15 16 -21z m567 -38 c3 -5 -1 -10 -9 -10 -9 0 -16 5 -16 10 0 6
4 10 9 10 6 0 13 -4 16 -10z m-571 -31 c-3 -5 -10 -7 -15 -3 -5 3 -7 10 -3 15
3 5 10 7 15 3 5 -3 7 -10 3 -15z m-54 -39 c17 -16 29 -34 26 -39 -4 -5 -17 1
-31 15 -13 13 -31 24 -40 24 -16 0 -20 12 -8 23 11 12 20 8 53 -23z m2305 -40
c4 -16 11 -32 16 -35 5 -4 9 -11 9 -18 0 -6 -11 5 -25 25 -26 39 -31 58 -16
58 5 0 12 -13 16 -30z m-3135 -125 c16 -8 55 -33 86 -55 32 -22 65 -40 75 -40
10 0 20 -4 23 -9 3 -4 36 -23 73 -40 113 -54 236 -128 267 -160 28 -29 29 -33
18 -68 -6 -21 -21 -81 -33 -133 -11 -52 -29 -124 -40 -160 -10 -36 -19 -76
-19 -88 0 -34 -49 -124 -62 -116 -8 5 -9 2 -5 -10 4 -9 4 -36 1 -60 -6 -42 -8
-44 -39 -43 -23 1 -31 5 -28 14 3 7 11 13 19 13 16 0 19 46 4 55 -15 9 -12 25
5 25 9 0 20 11 27 25 6 13 15 22 19 19 5 -3 9 6 9 20 0 14 -4 26 -10 26 -5 0
-10 8 -10 18 0 9 -7 26 -16 37 -14 19 -15 19 -20 -3 -8 -28 -32 -28 -43 1 -6
16 -5 23 5 25 18 5 18 9 -6 34 -34 37 -26 50 25 44 27 -3 47 0 52 7 3 6 1 13
-5 15 -6 2 -8 10 -5 18 3 8 1 14 -5 14 -9 0 -42 59 -42 74 0 3 19 3 41 0 33
-6 41 -4 37 7 -2 8 -14 18 -26 24 -27 12 -28 22 -2 30 l20 6 -20 29 c-11 15
-20 36 -20 45 0 9 -9 19 -20 22 -11 3 -20 11 -20 19 0 16 22 9 70 -23 42 -28
54 -29 40 -4 -19 37 -42 53 -66 47 -14 -4 -24 -2 -24 4 0 5 -10 10 -21 10 -48
0 -149 99 -149 146 0 13 -80 64 -100 64 -8 0 -10 -8 -5 -22 16 -53 16 -68 1
-98 -9 -20 -12 -38 -7 -48 5 -9 14 -39 20 -66 7 -27 23 -62 36 -78 26 -31 32
-48 16 -48 -5 0 -4 -13 2 -30 22 -58 -22 -51 -57 10 -16 27 -17 36 -7 52 10
16 10 23 -1 36 -8 10 -27 42 -42 72 -16 30 -35 63 -43 72 -8 9 -19 45 -23 80
-6 52 -5 66 9 82 12 14 13 20 4 23 -16 6 -17 53 -3 53 6 0 24 -7 40 -15z
m-677 -306 c4 -16 2 -19 -14 -14 -14 5 -19 2 -19 -13 0 -24 35 -35 51 -16 14
17 30 18 63 3 18 -9 24 -18 22 -37 -3 -21 -9 -27 -33 -29 -18 -2 -35 2 -43 12
-7 8 -23 15 -35 15 -26 0 -78 37 -70 50 3 5 1 11 -5 15 -19 12 -10 25 14 19
19 -4 26 -1 31 16 5 16 10 18 20 10 7 -6 15 -20 18 -31z m77 -5 c0 -2 -7 -4
-15 -4 -8 0 -15 4 -15 10 0 5 7 7 15 4 8 -4 15 -8 15 -10z m189 -48 c9 -10 9
-16 1 -21 -16 -10 -40 2 -40 20 0 19 24 20 39 1z m1671 -46 c25 -25 25 -30 1
-30 -17 0 -31 18 -31 41 0 14 8 11 30 -11z m-1827 -57 c-5 -12 -2 -15 10 -10
11 4 18 -1 22 -14 8 -24 -3 -39 -14 -20 -11 17 -23 -2 -15 -23 8 -21 -10 -21
-30 0 -20 20 -20 30 1 38 12 5 14 9 5 18 -18 18 -15 28 8 28 14 0 18 -5 13
-17z m-83 -44 c0 -11 -27 -12 -34 0 -3 4 -3 11 0 14 8 8 34 -3 34 -14z m830
-49 c0 -21 -24 -28 -35 -10 -8 14 3 30 21 30 8 0 14 -9 14 -20z m-687 -7 c-7
-2 -21 -2 -30 0 -10 3 -4 5 12 5 17 0 24 -2 18 -5z m847 -25 c0 -13 -23 -5
-28 10 -2 7 2 10 12 6 9 -3 16 -11 16 -16z m-880 -148 c-19 -12 -35 3 -26 26
6 17 8 17 24 0 15 -15 15 -18 2 -26z m898 -56 c1 -15 -3 -24 -9 -22 -6 2 -10
7 -10 11 1 4 1 14 1 22 0 26 16 16 18 -11z m-48 -84 c0 -5 -2 -10 -4 -10 -3 0
-8 5 -11 10 -3 6 -1 10 4 10 6 0 11 -4 11 -10z m0 -60 c0 -5 -7 -10 -15 -10
-8 0 -15 5 -15 10 0 6 7 10 15 10 8 0 15 -4 15 -10z m-870 -80 c0 -5 -4 -10
-10 -10 -5 0 -10 5 -10 10 0 6 5 10 10 10 6 0 10 -4 10 -10z m1569 -8 c15 -29
-2 -45 -22 -22 -9 11 -17 25 -17 30 0 17 29 11 39 -8z m-649 -59 c0 -34 -12
-63 -26 -63 -14 0 -19 36 -8 64 8 22 34 20 34 -1z m-985 -83 c3 -5 -1 -10 -9
-10 -9 0 -16 5 -16 10 0 6 4 10 9 10 6 0 13 -4 16 -10z m875 -430 c0 -14 -4
-32 -10 -40 -7 -12 -10 -11 -15 5 -4 11 -10 27 -15 36 -11 20 -4 28 21 26 13
-1 19 -9 19 -27z m-84 -357 c-11 -11 -19 6 -11 24 8 17 8 17 12 0 3 -10 2 -21
-1 -24z m-19 -65 c-3 -7 -5 -2 -5 12 0 14 2 19 5 13 2 -7 2 -19 0 -25z m797
-327 c10 -15 -22 -20 -34 -5 -10 11 -9 14 8 14 12 0 23 -4 26 -9z m-898 -148
c-7 -17 -8 -17 -17 0 -12 21 -2 44 13 29 6 -6 8 -19 4 -29z m-26 -153 c0 -5
-4 -10 -10 -10 -5 0 -10 5 -10 10 0 6 5 10 10 10 6 0 10 -4 10 -10z"/>
<path d="M5747 10473 c-15 -2 -25 -9 -22 -14 8 -13 35 -11 70 6 29 13 29 13 5
13 -14 -1 -37 -3 -53 -5z"/>
<path d="M6022 10418 c3 -7 13 -15 22 -16 12 -3 17 1 14 10 -3 7 -13 15 -22
16 -12 3 -17 -1 -14 -10z"/>
<path d="M5604 10239 c-43 -19 -71 -45 -60 -56 3 -3 14 1 24 10 10 10 25 17
34 17 15 0 55 37 47 44 -2 2 -22 -5 -45 -15z"/>
<path d="M5768 10253 c6 -2 18 -2 25 0 6 3 1 5 -13 5 -14 0 -19 -2 -12 -5z"/>
<path d="M6040 10222 c0 -15 38 -44 44 -34 6 9 -4 20 -31 36 -7 4 -13 3 -13
-2z"/>
<path d="M6114 10215 c8 -8 23 -15 32 -15 16 0 16 1 -2 15 -26 20 -51 20 -30
0z"/>
<path d="M5633 10173 c-15 -5 -17 -23 -4 -23 5 0 11 7 15 15 3 8 4 15 3 14 -1
0 -8 -3 -14 -6z"/>
<path d="M6180 10141 c0 -5 7 -11 14 -14 10 -4 13 -1 9 9 -6 15 -23 19 -23 5z"/>
<path d="M6165 10090 c3 -5 14 -10 23 -10 15 0 15 2 2 10 -20 13 -33 13 -25 0z"/>
<path d="M5168 10023 c7 -3 16 -2 19 1 4 3 -2 6 -13 5 -11 0 -14 -3 -6 -6z"/>
<path d="M5115 10010 c3 -5 8 -10 11 -10 2 0 4 5 4 10 0 6 -5 10 -11 10 -5 0
-7 -4 -4 -10z"/>
<path d="M6020 9990 c0 -5 12 -10 26 -10 14 0 23 4 19 10 -3 6 -15 10 -26 10
-10 0 -19 -4 -19 -10z"/>
<path d="M6655 9949 c-12 -19 8 -51 57 -89 27 -22 55 -40 61 -40 6 0 20 -8 31
-17 12 -10 4 0 -16 22 -20 22 -41 52 -47 66 -10 29 -77 74 -86 58z"/>
<path d="M6320 9941 c0 -16 30 -34 70 -41 50 -9 43 3 -17 30 -52 23 -53 23
-53 11z"/>
<path d="M6181 9871 c-10 -6 -10 -13 -2 -28 9 -18 15 -19 50 -10 28 8 50 8 75
0 30 -9 36 -9 36 3 0 8 -10 18 -22 23 -38 14 -122 22 -137 12z"/>
<path d="M5960 9853 c-15 -6 -30 -23 -30 -34 0 -11 50 -17 56 -7 3 5 14 6 24
3 16 -5 38 3 70 23 2 2 -2 7 -10 12 -16 10 -86 12 -110 3z"/>
<path d="M6550 9845 c13 -15 8 -19 -21 -16 -9 1 -19 -5 -22 -14 -4 -8 -16 -15
-27 -15 -26 0 -26 -17 1 -25 12 -4 30 -16 41 -27 16 -16 18 -22 7 -29 -18 -11
-5 -22 29 -25 15 -2 38 -6 51 -10 21 -6 22 -5 12 14 -12 22 -45 37 -61 27 -5
-3 -10 3 -10 14 0 12 -4 21 -10 21 -5 0 -10 5 -10 10 0 6 10 10 21 10 16 0 20
5 16 20 -3 12 0 20 6 20 16 -1 57 -36 57 -49 0 -12 27 -13 75 -2 l30 6 -35 22
c-19 12 -41 31 -48 42 -7 12 -19 21 -28 21 -14 0 -14 -3 -4 -15 17 -20 -9 -21
-36 0 -27 20 -51 20 -34 0z"/>
<path d="M5764 9826 c23 -19 32 -20 41 -6 3 6 0 10 -9 10 -8 0 -23 3 -33 6
-16 5 -16 4 1 -10z"/>
<path d="M5895 9820 c-3 -5 -2 -10 4 -10 5 0 13 5 16 10 3 6 2 10 -4 10 -5 0
-13 -4 -16 -10z"/>
<path d="M5742 9748 c-11 -40 -7 -50 16 -39 9 5 25 12 35 15 23 7 12 26 -15
26 -14 0 -18 5 -14 15 3 8 1 15 -4 15 -5 0 -13 -15 -18 -32z"/>
<path d="M6240 9756 c0 -12 10 -16 40 -16 22 0 40 5 40 10 0 6 -11 10 -24 10
-13 0 -31 3 -40 6 -11 4 -16 1 -16 -10z"/>
<path d="M5850 9750 c-15 -10 -13 -10 35 -10 3 0 5 3 6 8 0 11 -25 13 -41 2z"/>
<path d="M5938 9744 c-13 -12 -9 -24 7 -24 8 0 15 -8 15 -17 0 -13 -3 -14 -12
-5 -15 15 -32 16 -23 2 3 -5 -2 -10 -12 -10 -10 0 -27 -7 -37 -15 -23 -17
-116 -20 -116 -4 0 5 -5 7 -10 4 -6 -4 -17 -2 -24 5 -8 6 -26 8 -40 4 -29 -7
-30 -8 -16 -35 13 -24 45 -26 36 -3 -5 12 -2 15 11 9 10 -4 35 -11 56 -16 21
-5 56 -20 77 -34 22 -14 42 -25 46 -25 3 0 17 -9 31 -20 14 -11 32 -20 40 -20
8 0 26 9 40 20 14 11 36 20 49 20 13 0 24 5 24 10 0 6 -13 10 -30 10 -16 0
-30 -5 -30 -11 0 -17 -91 -1 -115 21 -11 9 -26 15 -32 13 -7 -3 -13 2 -13 10
0 22 21 26 57 12 26 -11 32 -11 37 1 3 8 11 13 18 12 7 -2 12 2 11 8 -4 21 62
38 175 43 23 2 12 19 -15 25 -55 10 -198 18 -205 10z m42 -184 c0 -5 -8 -10
-17 -10 -15 0 -16 2 -3 10 19 12 20 12 20 0z"/>
<path d="M6366 9691 c5 -4 24 -11 43 -15 29 -5 32 -4 21 9 -7 8 -26 15 -43 15
-18 0 -27 -4 -21 -9z"/>
<path d="M6466 9674 c-9 -23 -8 -24 14 -24 24 0 26 -15 5 -27 -11 -7 -1 -13
37 -25 l52 -16 -33 28 c-22 17 -30 29 -22 34 16 11 -5 46 -28 46 -11 0 -22 -7
-25 -16z"/>
<path d="M6021 9661 c-10 -6 -1 -11 29 -16 26 -4 46 -3 53 4 6 6 9 11 7 12
-46 7 -78 7 -89 0z"/>
<path d="M6355 9651 c-18 -7 -16 -9 10 -13 17 -3 39 -9 50 -13 20 -8 20 -8 1
13 -20 23 -29 25 -61 13z"/>
<path d="M6365 9600 c3 -5 8 -10 11 -10 2 0 4 5 4 10 0 6 -5 10 -11 10 -5 0
-7 -4 -4 -10z"/>
<path d="M6226 9591 c-3 -5 6 -12 20 -15 30 -8 53 2 33 15 -18 11 -46 11 -53
0z"/>
<path d="M6416 9591 c-3 -5 3 -11 13 -14 14 -3 18 -1 14 9 -6 16 -19 18 -27 5z"/>
<path d="M6160 9572 c0 -10 70 -45 77 -39 6 6 -52 47 -66 47 -6 0 -11 -4 -11
-8z"/>
<path d="M6310 9570 c0 -6 7 -10 15 -10 8 0 15 2 15 4 0 2 -7 6 -15 10 -8 3
-15 1 -15 -4z"/>
<path d="M6785 9570 c3 -5 15 -10 26 -10 11 0 17 5 14 10 -3 6 -15 10 -26 10
-11 0 -17 -4 -14 -10z"/>
<path d="M6560 9471 c0 -5 14 -21 31 -35 22 -18 41 -26 67 -25 l37 1 -31 7
c-32 8 -83 40 -84 54 0 10 -20 9 -20 -2z"/>
<path d="M6155 9450 c3 -5 8 -10 11 -10 2 0 4 5 4 10 0 6 -5 10 -11 10 -5 0
-7 -4 -4 -10z"/>
<path d="M6320 9404 c0 -12 -7 -14 -32 -9 -31 6 -32 5 -14 -10 11 -8 33 -15
49 -15 25 0 28 2 17 15 -18 22 3 18 27 -4 22 -21 35 -18 26 5 -3 8 1 14 8 15
19 1 -31 17 -58 18 -15 1 -23 -5 -23 -15z"/>
<path d="M6430 9385 c7 -8 17 -15 22 -15 6 0 5 7 -2 15 -7 8 -17 15 -22 15 -6
0 -5 -7 2 -15z"/>
<path d="M4908 10343 c-10 -2 -18 -9 -18 -14 0 -15 43 -7 48 9 4 12 0 13 -30
5z"/>
<path d="M4813 10304 c-4 -10 0 -20 10 -26 12 -6 15 -17 10 -38 -3 -20 -1 -30
6 -30 7 0 9 -5 6 -10 -5 -8 -11 -7 -21 1 -17 14 -18 14 -33 -30 -13 -41 -10
-46 19 -31 45 24 59 42 53 71 -4 21 0 30 16 38 31 17 26 40 -14 57 -43 18 -44
18 -52 -2z"/>
<path d="M4766 10100 c-19 -6 -19 -7 -1 -13 20 -8 29 -4 24 11 -2 5 -13 6 -23
2z"/>
<path d="M4710 10040 c-9 -6 -10 -10 -3 -10 6 0 15 5 18 10 8 12 4 12 -15 0z"/>
<path d="M5940 8470 c0 -5 5 -10 10 -10 6 0 10 5 10 10 0 6 -4 10 -10 10 -5 0
-10 -4 -10 -10z"/>
<path d="M5956 8452 c-3 -6 3 -12 15 -15 12 -3 19 -1 16 6 -5 15 -24 20 -31 9z"/>
<path d="M6180 7919 c0 -12 25 -22 41 -17 6 2 0 9 -15 16 -16 7 -26 8 -26 1z"/>
<path d="M7013 7398 c-52 -17 -113 -83 -113 -122 0 -9 12 -27 27 -41 15 -14
22 -25 15 -25 -7 0 -2 -12 13 -27 14 -15 25 -35 26 -43 0 -8 9 -40 19 -70 l20
-55 -5 58 c-4 45 -2 59 10 63 10 4 12 11 6 22 -10 20 -5 37 21 75 12 17 18 37
15 49 -7 25 10 61 24 53 15 -10 10 29 -7 53 -17 24 -23 25 -71 10z m70 -28 c3
-13 0 -20 -10 -20 -8 0 -11 5 -8 10 3 6 -2 10 -12 11 -16 0 -16 1 2 9 11 5 21
9 21 9 1 1 4 -8 7 -19z"/>
<path d="M6097 6484 c-11 -11 3 -24 24 -24 12 0 19 5 17 13 -5 14 -31 21 -41
11z"/>
<path d="M6653 6450 c0 -25 2 -35 4 -22 2 12 2 32 0 45 -2 12 -4 2 -4 -23z"/>
<path d="M6315 6091 c-3 -5 -1 -12 5 -16 5 -3 10 1 10 9 0 18 -6 21 -15 7z"/>
<path d="M6360 6005 c0 -15 4 -24 10 -20 6 3 10 12 10 20 0 8 -4 17 -10 20 -6
4 -10 -5 -10 -20z"/>
<path d="M4766 5963 c-3 -3 -3 -10 0 -14 7 -12 34 -11 34 0 0 11 -26 22 -34
14z"/>
<path d="M5118 5923 c7 -3 16 -2 19 1 4 3 -2 6 -13 5 -11 0 -14 -3 -6 -6z"/>
<path d="M5870 5786 c0 -9 5 -16 10 -16 6 0 10 4 10 9 0 6 -4 13 -10 16 -5 3
-10 -1 -10 -9z"/>
<path d="M5429 5218 c9 -25 31 -36 31 -16 0 15 -19 38 -32 38 -4 0 -4 -10 1
-22z"/>
<path d="M7220 2912 c0 -14 11 -21 26 -15 8 3 11 9 8 14 -7 11 -34 12 -34 1z"/>
<path d="M6523 4249 c-18 -75 -15 -97 3 -29 8 30 13 61 12 68 -2 8 -9 -10 -15
-39z"/>
<path d="M5460 4189 c0 -5 5 -7 10 -4 6 3 10 8 10 11 0 2 -4 4 -10 4 -5 0 -10
-5 -10 -11z"/>
<path d="M6481 4092 c-13 -37 -29 -80 -36 -97 -15 -31 -10 -50 5 -25 6 8 17
40 25 70 8 30 21 67 29 82 8 15 11 30 7 32 -4 3 -18 -25 -30 -62z"/>
<path d="M7190 4130 c0 -5 5 -10 10 -10 6 0 10 5 10 10 0 6 -4 10 -10 10 -5 0
-10 -4 -10 -10z"/>
<path d="M7110 4082 c0 -14 11 -21 26 -15 21 8 17 23 -6 23 -11 0 -20 -4 -20
-8z"/>
<path d="M7086 3994 c-9 -23 -8 -24 12 -24 26 0 34 11 21 27 -15 17 -26 17
-33 -3z"/>
<path d="M6401 3907 c-12 -27 -21 -51 -21 -53 0 -3 -9 -14 -20 -26 -11 -12
-20 -30 -20 -39 0 -10 -5 -19 -10 -21 -6 -2 -12 -14 -15 -27 -5 -28 -25 -53
-25 -32 0 11 -3 11 -15 1 -8 -7 -15 -19 -15 -27 0 -7 -7 -16 -15 -19 -8 -4
-13 -10 -10 -14 5 -9 -48 -70 -61 -70 -8 0 -54 -48 -54 -57 0 -3 -11 -19 -26
-35 -14 -17 -23 -37 -20 -44 3 -8 2 -14 -3 -14 -16 0 -66 -53 -53 -58 6 -2 12
-8 12 -13 0 -6 -4 -8 -9 -4 -5 3 -12 1 -16 -5 -3 -5 -15 -10 -25 -10 -12 0
-26 -16 -41 -51 -23 -50 -24 -50 -34 -27 l-10 25 -16 -34 c-16 -32 -16 -34 1
-43 10 -6 25 -7 33 -4 8 3 18 1 22 -5 3 -6 1 -11 -6 -11 -10 0 -10 -2 0 -12
10 -11 15 -10 24 2 18 23 116 72 129 64 6 -4 -2 -12 -18 -19 -34 -15 -104 -83
-104 -101 0 -19 17 -26 23 -10 5 12 67 29 67 18 0 -7 -20 -82 -32 -121 -8 -26
-7 -35 3 -42 11 -7 11 -9 -1 -9 -9 0 -16 -9 -17 -20 -1 -11 1 -20 4 -20 19 0
103 146 103 180 0 11 4 20 8 20 5 0 17 19 26 43 10 23 29 65 42 93 13 28 24
55 24 60 0 5 6 21 14 36 8 14 19 43 26 65 7 21 20 54 30 73 9 19 25 58 34 85
10 28 29 79 43 115 14 36 30 83 35 105 6 22 20 59 30 81 15 32 18 47 10 60 -9
17 -13 13 -31 -29z"/>
<path d="M8020 3921 c0 -5 5 -13 10 -16 6 -3 10 -2 10 4 0 5 -4 13 -10 16 -5
3 -10 2 -10 -4z"/>
<path d="M5350 3880 c0 -5 5 -10 10 -10 6 0 10 5 10 10 0 6 -4 10 -10 10 -5 0
-10 -4 -10 -10z"/>
<path d="M5415 3860 c-3 -5 1 -10 9 -10 9 0 16 5 16 10 0 6 -4 10 -9 10 -6 0
-13 -4 -16 -10z"/>
<path d="M8385 3840 c3 -5 8 -10 11 -10 2 0 4 5 4 10 0 6 -5 10 -11 10 -5 0
-7 -4 -4 -10z"/>
<path d="M8726 3785 c4 -8 8 -15 10 -15 2 0 4 7 4 15 0 8 -4 15 -10 15 -5 0
-7 -7 -4 -15z"/>
<path d="M6955 3780 c3 -5 8 -10 11 -10 2 0 4 5 4 10 0 6 -5 10 -11 10 -5 0
-7 -4 -4 -10z"/>
<path d="M8345 3780 c4 -6 11 -8 16 -5 14 9 11 15 -7 15 -8 0 -12 -5 -9 -10z"/>
<path d="M8432 3759 c2 -7 10 -15 17 -17 8 -3 12 1 9 9 -2 7 -10 15 -17 17 -8
3 -12 -1 -9 -9z"/>
<path d="M8866 3701 c-3 -5 3 -11 14 -14 13 -3 20 0 20 9 0 15 -26 19 -34 5z"/>
<path d="M5535 3600 c3 -5 8 -10 11 -10 2 0 4 5 4 10 0 6 -5 10 -11 10 -5 0
-7 -4 -4 -10z"/>
<path d="M5651 3538 c3 -18 -12 -68 -20 -68 -4 0 -17 7 -29 16 -21 14 -25 14
-40 1 -9 -8 -30 -19 -47 -24 -40 -13 -48 -53 -11 -53 16 0 26 -6 26 -15 0 -8
5 -15 10 -15 6 0 10 5 10 10 0 6 7 10 15 10 8 0 15 -5 15 -10 0 -6 10 -14 21
-18 16 -6 22 -18 24 -45 1 -22 -3 -37 -9 -37 -6 0 -17 -9 -23 -19 -10 -16 -9
-20 3 -25 22 -8 24 -8 24 7 0 8 16 12 48 12 26 -1 56 3 66 8 33 16 78 68 72
84 -3 8 -6 20 -6 27 0 7 -12 26 -26 41 -25 27 -28 27 -72 17 -26 -6 -51 -8
-56 -5 -15 10 37 32 75 33 39 0 54 16 38 41 -5 8 -9 10 -9 5 0 -5 -8 -2 -17 6
-25 22 -85 34 -82 16z m115 -200 c5 -7 3 -8 -6 -3 -10 6 -12 3 -8 -13 4 -14 2
-22 -7 -22 -20 0 -26 38 -6 43 9 3 17 5 18 6 1 0 5 -4 9 -11z"/>
<path d="M7600 3486 c0 -2 7 -6 15 -10 8 -3 15 -1 15 4 0 6 -7 10 -15 10 -8 0
-15 -2 -15 -4z"/>
<path d="M10301 3349 c-29 -39 -54 -111 -96 -274 -57 -223 -76 -287 -89 -314
-7 -14 -16 -38 -20 -53 -9 -37 -26 -36 -26 2 0 33 -19 47 -67 48 -34 1 -54
-15 -34 -28 9 -5 8 -10 -4 -20 -14 -12 -14 -15 6 -36 13 -14 23 -40 26 -71 3
-26 9 -53 15 -60 12 -15 2 -33 -19 -33 -14 0 -14 -2 1 -19 15 -16 15 -21 3
-28 -7 -4 -16 -16 -20 -25 -4 -11 -17 -18 -31 -18 -14 0 -31 -7 -40 -15 -8 -8
-19 -15 -24 -15 -9 0 -26 28 -24 40 0 3 -22 6 -49 7 -29 0 -55 7 -64 17 -9 8
-24 20 -33 25 -16 9 -16 11 -1 26 13 13 21 14 36 7 11 -6 25 -7 33 -2 8 5 18
6 23 3 5 -3 3 4 -5 16 -14 23 -57 28 -76 9 -8 -8 -15 -8 -26 2 -19 15 -46 6
-46 -15 0 -8 -4 -15 -10 -15 -5 0 -10 7 -10 15 0 8 4 15 9 15 15 0 20 38 7 55
-7 10 -22 15 -37 13 -24 -3 -30 -23 -6 -23 6 0 13 -10 15 -22 5 -37 -26 -28
-72 20 -22 23 -36 36 -32 28 10 -16 -9 -31 -41 -31 -28 0 -30 -20 -3 -27 11
-3 26 -19 35 -35 13 -28 13 -30 -5 -35 -27 -7 -25 -18 7 -32 21 -10 24 -14 13
-21 -10 -6 -22 -2 -37 12 -20 19 -23 19 -29 4 -9 -23 24 -58 48 -50 10 3 18 0
18 -6 0 -6 4 -9 9 -6 12 8 48 -21 38 -30 -4 -5 -17 -3 -27 4 -30 19 -26 -13 5
-42 21 -19 23 -25 10 -30 -16 -6 -16 -46 0 -58 6 -5 6 -11 -2 -19 -6 -6 -9
-18 -6 -25 3 -9 -2 -14 -16 -14 -12 0 -24 7 -27 15 -4 8 -16 15 -28 15 -30 0
-28 -50 2 -63 12 -6 22 -18 22 -29 0 -22 -7 -23 -26 -3 -9 8 -33 15 -55 15
-37 0 -51 -12 -29 -25 6 -3 10 -13 10 -21 0 -15 -3 -14 -45 24 -7 6 -19 12
-26 12 -7 0 -5 -7 7 -16 13 -11 15 -17 7 -20 -7 -3 -13 -17 -13 -30 0 -17 -6
-24 -20 -24 -11 0 -28 -8 -39 -19 -12 -12 -23 -16 -32 -10 -8 5 -23 9 -34 9
-20 -1 -20 -1 -1 -15 11 -8 32 -15 46 -15 23 0 28 -7 42 -50 12 -37 13 -50 4
-50 -7 0 -17 5 -23 11 -8 8 -17 7 -32 -3 -29 -18 -26 -28 9 -28 25 0 30 -4 30
-25 0 -30 -24 -43 -45 -25 -22 18 -18 5 10 -40 14 -22 35 -42 48 -45 13 -4 28
-15 35 -26 11 -17 9 -19 -13 -19 -36 0 -94 30 -88 46 6 15 -20 29 -36 20 -6
-4 -3 -18 7 -36 14 -25 15 -32 3 -39 -7 -5 -21 -6 -31 -4 -15 4 -17 1 -13 -15
4 -17 0 -21 -28 -24 -31 -3 -32 -4 -16 -20 25 -24 21 -28 -15 -17 -18 5 -34 9
-36 9 -1 0 1 -12 4 -26 6 -22 4 -25 -12 -21 -11 4 -32 9 -49 13 -29 7 -30 7
-12 -13 17 -20 17 -21 -12 -32 -16 -7 -31 -21 -34 -32 -3 -10 -13 -19 -24 -19
-25 -1 -57 -26 -44 -35 15 -8 3 -105 -15 -126 -21 -24 -18 -81 7 -102 15 -14
20 -29 19 -60 -3 -67 -1 -77 15 -77 9 0 15 -9 15 -21 0 -15 -5 -19 -15 -15
-20 7 -19 -14 3 -41 11 -14 33 -24 62 -28 49 -7 66 -17 56 -34 -12 -18 -44
-12 -60 11 -13 19 -20 20 -43 12 -33 -12 -33 -37 0 -72 l20 -22 -26 0 c-28 0
-35 -18 -16 -37 6 -6 8 -17 3 -24 -4 -8 -10 -38 -11 -68 -2 -30 -8 -60 -13
-66 -6 -7 -5 -16 2 -23 9 -9 7 -16 -5 -30 -21 -23 -22 -38 -3 -45 10 -4 14
-21 14 -51 -1 -44 -3 -46 -30 -46 -15 0 -28 -2 -28 -5 0 -4 16 -22 35 -42 l35
-36 91 22 c120 30 138 22 103 -44 -12 -23 -13 -34 -4 -51 9 -16 8 -31 -3 -65
-9 -24 -19 -43 -24 -42 -13 2 -7 -78 6 -87 10 -6 8 -13 -8 -29 -15 -15 -21
-32 -19 -49 l3 -27 923 -3 922 -2 0 379 0 380 -46 7 c-27 4 -55 2 -70 -5 -37
-16 -74 -14 -74 5 0 12 7 14 30 9 29 -6 30 -5 30 29 0 25 5 36 15 36 21 0 37
34 22 49 -9 9 -9 14 -1 19 6 4 14 17 18 30 4 12 11 22 16 22 5 0 20 11 34 24
24 21 26 31 26 99 0 42 -4 79 -10 82 -5 3 -10 24 -10 45 0 21 5 42 10 45 6 3
10 52 10 112 l0 106 -40 -51 c-22 -27 -47 -52 -55 -56 -8 -3 -15 -15 -15 -26
0 -11 -7 -23 -15 -26 -8 -4 -15 -11 -15 -18 0 -7 -22 -28 -48 -49 -34 -26 -54
-34 -70 -30 -19 4 -22 1 -22 -21 0 -22 -4 -26 -29 -26 -15 0 -40 -9 -54 -20
-14 -11 -37 -20 -51 -20 -15 0 -29 -6 -32 -14 -3 -8 -12 -12 -20 -9 -8 3 -25
-4 -37 -16 -22 -19 -31 -20 -181 -17 -157 4 -157 4 -187 32 -38 36 -39 71 -1
80 47 11 146 42 184 58 21 9 47 16 59 16 18 0 145 50 199 79 8 4 21 19 28 34
7 14 28 38 48 54 19 15 49 43 67 61 17 17 37 32 45 32 20 0 68 51 75 80 3 14
15 35 27 47 11 12 20 26 20 31 0 5 16 22 35 36 19 15 35 34 35 43 0 10 6 14
19 10 16 -4 20 3 25 41 11 78 7 122 -9 129 -25 9 -32 -7 -10 -24 18 -13 16
-14 -30 -8 -27 4 -58 9 -67 11 -9 3 -20 -1 -25 -8 -10 -17 -109 -84 -172 -118
-25 -13 -48 -28 -51 -32 -20 -27 -202 -33 -286 -9 -55 15 -94 47 -94 76 0 25
17 35 58 35 33 0 121 31 162 57 30 19 64 65 91 123 22 45 46 178 39 211 -4 23
-8 25 -27 18 -12 -4 -29 -23 -36 -41 -18 -41 -52 -72 -71 -65 -18 7 -28 -17
-13 -32 8 -8 7 -15 -5 -27 -22 -22 -58 -10 -58 21 0 20 -8 25 -52 35 -94 21
-127 33 -122 41 3 5 21 9 40 9 19 0 34 5 34 11 0 6 11 8 28 4 34 -7 116 25
125 49 4 10 1 16 -6 16 -7 0 -22 6 -33 14 -18 14 -18 15 0 22 11 4 21 2 27 -7
8 -12 12 -10 25 6 8 11 20 19 25 18 5 -2 9 8 9 21 0 17 5 23 18 22 11 -1 16 5
15 19 -1 11 2 33 7 48 6 17 6 35 0 45 -5 9 -11 25 -14 35 -3 9 -14 17 -25 17
-11 0 -23 5 -26 10 -11 17 -24 11 -31 -15 -8 -32 -33 -32 -69 1 -27 25 -28 27
-16 77 9 36 10 60 3 78 -13 33 0 243 22 354 9 44 16 101 16 127 0 26 4 49 9
52 13 8 43 106 37 122 -3 7 4 14 17 17 21 4 21 4 1 6 -12 0 -29 -11 -43 -30z
m27 -859 c11 -18 10 -22 -10 -29 -16 -6 -31 -4 -50 7 -37 21 -36 35 2 27 19
-4 30 -3 30 4 0 17 14 13 28 -9z m-360 -117 c-5 -25 -28 -28 -28 -4 0 12 6 21
16 21 9 0 14 -7 12 -17z m-38 -64 c0 -4 -7 -6 -15 -3 -8 4 -15 10 -15 15 0 4
7 6 15 3 8 -4 15 -10 15 -15z m-328 -151 c-9 -9 -15 -9 -24 0 -9 9 -7 12 12
12 19 0 21 -3 12 -12z m-45 -60 c22 -21 31 -48 16 -48 -16 1 -40 26 -47 48 -9
28 1 28 31 0z m-74 -32 c16 -12 24 -36 12 -36 -14 0 -65 32 -65 40 0 14 32 12
53 -4z m757 -44 c0 -4 -15 -14 -34 -20 -27 -10 -40 -10 -61 0 -24 11 -25 13
-8 19 25 10 103 11 103 1z m-772 -47 c-11 -11 -38 8 -38 26 0 19 1 19 22 -1
12 -11 19 -22 16 -25z m343 -281 c12 -14 11 -16 -5 -13 -11 2 -21 10 -24 17
-5 17 13 15 29 -4z m299 -174 c0 -12 -27 -12 -55 0 -16 7 -13 9 18 9 20 1 37
-3 37 -9z m-1155 -531 c-6 -9 -35 -1 -35 10 0 4 3 11 7 14 8 9 34 -13 28 -24z"/>
<path d="M9185 3250 c-3 -5 1 -10 9 -10 9 0 16 5 16 10 0 6 -4 10 -9 10 -6 0
-13 -4 -16 -10z"/>
<path d="M9220 3210 c0 -5 5 -10 10 -10 6 0 10 5 10 10 0 6 -4 10 -10 10 -5 0
-10 -4 -10 -10z"/>
<path d="M7825 2980 c3 -5 8 -10 11 -10 2 0 4 5 4 10 0 6 -5 10 -11 10 -5 0
-7 -4 -4 -10z"/>
<path d="M4560 2739 c0 -5 5 -7 10 -4 6 3 10 8 10 11 0 2 -4 4 -10 4 -5 0 -10
-5 -10 -11z"/>
<path d="M4456 2555 c4 -8 8 -15 10 -15 2 0 4 7 4 15 0 8 -4 15 -10 15 -5 0
-7 -7 -4 -15z"/>
<path d="M4480 2530 c0 -5 5 -10 11 -10 5 0 7 5 4 10 -3 6 -8 10 -11 10 -2 0
-4 -4 -4 -10z"/>
<path d="M10873 2334 c-3 -8 -1 -48 4 -87 l10 -72 2 88 c1 84 -3 104 -16 71z"/>
<path d="M4115 2271 c-17 -7 -17 -8 8 -13 15 -3 35 1 44 8 17 12 16 13 -7 13
-14 0 -34 -4 -45 -8z"/>
<path d="M9460 2272 c0 -4 8 -12 18 -18 13 -8 20 -8 29 1 9 10 7 14 -10 19
-29 8 -37 7 -37 -2z"/>
<path d="M4006 2230 c-22 -11 -53 -20 -70 -20 -17 0 -42 -9 -56 -20 l-25 -19
55 14 c111 28 145 38 165 52 19 12 19 13 -5 13 -14 -1 -43 -10 -64 -20z"/>
<path d="M5340 2224 c0 -9 5 -14 12 -12 18 6 21 28 4 28 -9 0 -16 -7 -16 -16z"/>
<path d="M5265 2180 c-3 -5 -1 -10 4 -10 6 0 11 5 11 10 0 6 -2 10 -4 10 -3 0
-8 -4 -11 -10z"/>
<path d="M3805 2160 c-3 -5 -33 -21 -65 -36 -33 -15 -60 -31 -60 -36 0 -4 -12
-13 -27 -19 -16 -6 -23 -13 -17 -16 10 -3 67 29 101 57 7 6 25 13 41 16 15 3
39 14 52 25 25 18 25 19 3 19 -12 0 -24 -4 -28 -10z"/>
<path d="M8882 2088 c5 -15 28 -23 28 -10 0 5 -7 13 -16 16 -10 4 -14 1 -12
-6z"/>
<path d="M5377 2051 c-4 -17 -3 -21 5 -13 5 5 8 16 6 23 -3 8 -7 3 -11 -10z"/>
<path d="M5330 1969 c0 -5 5 -7 10 -4 6 3 10 8 10 11 0 2 -4 4 -10 4 -5 0 -10
-5 -10 -11z"/>
<path d="M5285 1911 c6 -20 -11 -43 -47 -62 -20 -11 -20 -12 -4 -21 10 -5 19
-8 20 -6 45 62 60 108 35 108 -6 0 -8 -8 -4 -19z"/>
<path d="M5054 1872 c-15 -10 -25 -42 -14 -42 6 0 10 6 10 14 0 8 6 16 13 19
6 2 10 7 7 10 -3 3 -10 3 -16 -1z"/>
<path d="M5160 1876 c0 -8 48 -12 66 -5 13 5 7 8 -23 8 -24 1 -43 -1 -43 -3z"/>
<path d="M5140 1826 c-6 -15 -4 -25 7 -33 14 -11 14 -15 2 -29 -11 -13 -11
-18 -1 -21 6 -3 12 -21 12 -40 0 -20 -3 -33 -7 -30 -8 9 -34 -43 -27 -54 10
-17 33 -9 40 14 8 28 57 130 65 137 3 3 8 13 12 22 8 23 -13 35 -25 14 -5 -9
-13 -16 -17 -16 -14 0 -20 39 -7 43 6 2 -2 6 -17 9 -23 4 -30 1 -37 -16z m85
-46 c-3 -5 -11 -10 -16 -10 -6 0 -7 5 -4 10 3 6 11 10 16 10 6 0 7 -4 4 -10z
m-40 -58 c-12 -13 -24 22 -12 37 10 12 13 11 15 -8 2 -13 1 -26 -3 -29z"/>
<path d="M4985 1830 c-3 -5 -1 -10 4 -10 6 0 11 5 11 10 0 6 -2 10 -4 10 -3 0
-8 -4 -11 -10z"/>
<path d="M4246 1778 c-3 -16 -3 -34 0 -39 3 -6 0 -16 -6 -24 -10 -12 -9 -15 8
-15 49 0 67 25 37 50 -9 7 -13 21 -10 30 3 10 0 20 -9 23 -9 4 -16 -4 -20 -25z"/>
<path d="M5040 1780 c0 -5 5 -10 11 -10 5 0 7 5 4 10 -3 6 -8 10 -11 10 -2 0
-4 -4 -4 -10z"/>
<path d="M4920 1720 c0 -5 7 -10 16 -10 8 0 12 5 9 10 -3 6 -10 10 -16 10 -5
0 -9 -4 -9 -10z"/>
<path d="M5060 1715 c0 -9 5 -15 11 -13 6 2 11 8 11 13 0 5 -5 11 -11 13 -6 2
-11 -4 -11 -13z"/>
<path d="M4275 1680 c3 -5 8 -10 11 -10 2 0 4 5 4 10 0 6 -5 10 -11 10 -5 0
-7 -4 -4 -10z"/>
<path d="M4880 1680 c0 -13 39 -48 61 -55 20 -7 16 -32 -8 -51 -11 -10 -10
-22 7 -75 11 -35 20 -75 20 -89 0 -15 4 -30 10 -36 5 -5 13 -27 17 -48 l8 -38
48 99 c26 54 59 119 73 146 22 44 23 48 7 53 -52 17 -214 88 -219 95 -7 12
-24 11 -24 -1z m115 -114 c-32 -14 -41 -13 -30 3 3 6 18 11 33 11 l27 -1 -30
-13z m-5 -86 c0 -11 -2 -20 -4 -20 -2 0 -6 9 -9 20 -3 11 -1 20 4 20 5 0 9 -9
9 -20z"/>
<path d="M5018 1673 c7 -3 16 -2 19 1 4 3 -2 6 -13 5 -11 0 -14 -3 -6 -6z"/>
<path d="M5060 1655 c7 -9 15 -13 17 -11 7 7 -7 26 -19 26 -6 0 -6 -6 2 -15z"/>
<path d="M4385 1600 c3 -5 8 -10 11 -10 2 0 4 5 4 10 0 6 -5 10 -11 10 -5 0
-7 -4 -4 -10z"/>
<path d="M8800 1540 c0 -5 7 -10 16 -10 8 0 12 5 9 10 -3 6 -10 10 -16 10 -5
0 -9 -4 -9 -10z"/>
<path d="M8785 1260 c-3 -5 1 -10 9 -10 8 0 18 5 21 10 3 6 -1 10 -9 10 -8 0
-18 -4 -21 -10z"/>
<path d="M4840 1186 c0 -9 5 -16 10 -16 6 0 10 4 10 9 0 6 -4 13 -10 16 -5 3
-10 -1 -10 -9z"/>
<path d="M4875 1150 c-3 -5 -1 -10 4 -10 6 0 11 5 11 10 0 6 -2 10 -4 10 -3 0
-8 -4 -11 -10z"/>
<path d="M3553 1060 c0 -25 2 -35 4 -22 2 12 2 32 0 45 -2 12 -4 2 -4 -23z"/>
<path d="M8778 1053 c7 -3 16 -2 19 1 4 3 -2 6 -13 5 -11 0 -14 -3 -6 -6z"/>
<path d="M3553 670 c0 -25 2 -35 4 -22 2 12 2 32 0 45 -2 12 -4 2 -4 -23z"/>
<path d="M8931 349 c-13 -5 -21 -12 -17 -16 3 -3 16 -1 29 5 12 6 33 13 47 15
22 4 21 4 -5 5 -16 0 -41 -4 -54 -9z"/>
<path d="M8831 311 c-7 -5 -10 -14 -7 -20 9 -14 36 -15 36 -1 0 6 -5 10 -11
10 -5 0 -7 5 -4 10 8 12 4 12 -14 1z"/>
<path d="M8818 23 c7 -3 16 -2 19 1 4 3 -2 6 -13 5 -11 0 -14 -3 -6 -6z"/>
</g>
</svg>
