<?xml version="1.0" standalone="no"?>
<!DOCTYPE svg PUBLIC "-//W3C//DTD SVG 20010904//EN"
 "http://www.w3.org/TR/2001/REC-SVG-20010904/DTD/svg10.dtd">
<svg version="1.0" xmlns="http://www.w3.org/2000/svg"
 width="491.000000pt" height="101.000000pt" viewBox="0 0 491.000000 101.000000"
 preserveAspectRatio="xMidYMid meet">

<g transform="translate(0.000000,101.000000) scale(0.100000,-0.100000)"
fill="#000000" stroke="none">
<path d="M0 505 l0 -505 2455 0 2455 0 0 505 0 505 -2455 0 -2455 0 0 -505z
m2795 190 c0 -14 -8 -21 -27 -23 -24 -3 -28 0 -28 23 0 23 4 26 28 23 19 -2
27 -9 27 -23z m215 -42 l1 -68 17 28 c13 21 24 27 50 27 l33 0 -26 -34 -26
-35 25 -38 26 -38 -27 -3 c-21 -3 -33 3 -50 25 l-23 28 0 -27 c0 -23 -4 -28
-25 -28 l-25 0 0 115 0 115 25 0 c24 0 25 -2 25 -67z m820 -47 l0 -115 -64 0
c-75 0 -94 11 -102 59 -8 49 24 90 72 90 33 0 34 1 34 40 0 38 2 40 30 40 l30
0 0 -114z m80 89 c0 -20 -5 -25 -24 -25 -24 0 -41 23 -30 41 3 5 16 9 30 9 19
0 24 -5 24 -25z m-2680 -19 c0 -23 -4 -25 -40 -23 -47 2 -72 -19 -72 -58 0
-39 24 -59 72 -57 38 2 41 0 38 -21 -3 -19 -10 -22 -56 -25 -47 -3 -56 0 -82
27 -23 23 -30 38 -30 68 1 75 41 112 123 113 43 0 47 -2 47 -24z m173 12 c35
-18 46 -40 47 -91 0 -41 -5 -53 -29 -78 -23 -23 -38 -29 -71 -29 -52 0 -76 13
-95 50 -28 55 -12 119 36 146 30 17 83 18 112 2z m132 -50 c10 -35 21 -66 25
-70 3 -5 14 24 25 62 18 66 21 70 48 70 23 0 27 -3 22 -19 -56 -179 -60 -186
-95 -186 -35 0 -39 7 -95 186 -5 16 -1 19 23 19 27 0 30 -4 47 -62z m205 -43
l0 -105 -30 0 -30 0 0 105 0 105 30 0 30 0 0 -105z m201 76 c21 -21 29 -39 29
-65 0 -80 -42 -116 -135 -116 l-55 0 0 105 0 105 66 0 c59 0 68 -3 95 -29z
m279 -76 l0 -105 -25 0 c-24 0 -25 2 -25 74 0 69 -1 74 -20 69 -32 -8 -26 33
8 51 58 32 62 27 62 -89z m190 85 c16 -16 20 -33 20 -80 0 -80 -26 -110 -95
-110 -40 0 -45 2 -45 23 0 20 4 23 30 19 29 -4 60 11 60 29 0 5 -13 6 -29 3
-59 -12 -96 71 -51 116 12 12 33 20 55 20 22 0 43 -8 55 -20z m284 -2 c21 -30
20 -54 -2 -76 -17 -17 -17 -21 -5 -38 8 -10 21 -31 29 -46 14 -28 14 -28 -14
-28 -23 0 -35 9 -56 40 -14 22 -31 40 -36 40 -6 0 -10 -18 -10 -40 0 -36 -2
-40 -25 -40 l-25 0 0 105 0 105 64 0 c56 0 67 -3 80 -22z m658 5 c28 -25 24
-77 -8 -102 -15 -12 -37 -21 -50 -21 -21 0 -24 -5 -24 -35 0 -32 -2 -35 -30
-35 l-30 0 0 105 0 105 62 0 c43 0 67 -5 80 -17z m798 -18 c0 -16 6 -25 15
-25 8 0 15 -9 15 -20 0 -11 -7 -20 -15 -20 -10 0 -15 -11 -15 -35 0 -24 5 -35
15 -35 8 0 15 -9 15 -20 0 -15 -7 -20 -28 -20 -39 0 -52 17 -52 66 0 28 -5 44
-15 48 -8 3 -15 12 -15 21 0 8 7 15 15 15 8 0 15 9 15 19 0 19 12 29 38 30 6
1 12 -10 12 -24z m-3519 -14 c13 -10 44 -25 69 -33 l45 -15 3 -86 c3 -103 -10
-142 -64 -183 -52 -40 -116 -40 -168 0 -52 39 -66 78 -66 182 0 80 1 86 22 92
12 3 45 18 73 33 61 33 57 33 86 10z m2159 -86 c0 -73 -1 -75 -25 -75 -24 0
-25 2 -25 75 0 73 1 75 25 75 24 0 25 -2 25 -75z m140 55 c0 -16 -7 -20 -32
-21 l-33 0 32 -16 c70 -35 45 -96 -36 -91 -39 3 -47 7 -49 25 -3 20 0 21 32
16 41 -6 48 3 12 17 -36 13 -49 42 -30 68 12 17 25 22 60 22 37 0 44 -3 44
-20z m570 -5 c0 -18 -4 -22 -20 -18 -22 6 -40 -28 -40 -78 0 -24 -4 -29 -25
-29 -24 0 -25 2 -25 74 l0 74 55 0 c50 -1 55 -3 55 -23z m132 8 c10 -9 18 -29
18 -45 0 -27 -2 -28 -45 -28 -25 0 -45 -4 -45 -10 0 -5 18 -10 41 -10 33 0 40
-3 37 -17 -5 -28 -91 -30 -117 -4 -46 46 -9 131 56 131 20 0 45 -7 55 -17z
m278 -58 c0 -73 -1 -75 -25 -75 -24 0 -25 2 -25 75 0 73 1 75 25 75 24 0 25
-2 25 -75z m150 52 c0 -18 -5 -22 -32 -22 -30 0 -33 -3 -33 -30 0 -27 3 -30
33 -30 27 0 32 -4 32 -22 0 -20 -5 -23 -44 -23 -36 0 -48 5 -65 26 -44 57 -7
124 69 124 35 0 40 -3 40 -23z m280 3 c12 -12 20 -33 20 -55 0 -50 -29 -75
-84 -75 -36 0 -48 5 -65 26 -28 35 -26 69 4 99 31 32 96 34 125 5z m150 -7 c0
-14 -4 -22 -10 -18 -21 13 -40 -17 -40 -61 0 -40 -2 -44 -25 -44 -24 0 -25 2
-25 74 l0 75 50 -1 c46 0 50 -2 50 -25z m-2410 -38 c0 -11 -11 -15 -40 -15
-29 0 -40 4 -40 15 0 11 11 15 40 15 29 0 40 -4 40 -15z m-140 -294 l0 -69
-36 1 c-46 2 -63 25 -46 61 8 18 19 26 37 26 20 0 25 5 25 25 0 14 5 25 10 25
6 0 10 -30 10 -69z m400 1 l0 -69 -32 -1 c-39 -1 -58 13 -58 42 0 28 18 46 47
46 18 0 23 6 23 25 0 14 5 25 10 25 6 0 10 -29 10 -68z m250 -2 c0 -40 -4 -70
-10 -70 -6 0 -10 30 -10 70 0 40 4 70 10 70 6 0 10 -30 10 -70z m310 28 c0
-39 1 -40 18 -25 10 10 24 17 31 17 7 0 3 -9 -10 -19 l-24 -19 24 -26 c27 -29
10 -37 -21 -9 -17 15 -18 15 -18 0 0 -10 -4 -17 -10 -17 -6 0 -10 30 -10 70 0
40 4 70 10 70 6 0 10 -19 10 -42z m-1780 29 c0 -2 11 -31 24 -65 18 -45 21
-62 11 -62 -7 0 -15 9 -18 20 -6 24 -57 29 -57 6 0 -15 -18 -31 -25 -24 -4 4
30 102 41 120 5 8 24 11 24 5z m80 -62 c0 -37 -4 -65 -10 -65 -6 0 -10 28 -10
65 0 37 4 65 10 65 6 0 10 -28 10 -65z m168 27 c3 -29 0 -33 -27 -38 -24 -5
-31 -12 -31 -30 0 -13 -4 -24 -10 -24 -6 0 -10 29 -10 66 l0 65 38 -3 c34 -3
37 -6 40 -36z m688 -10 l21 -47 21 48 c12 26 26 47 32 47 6 0 10 -27 10 -65 0
-37 -4 -65 -10 -65 -5 0 -10 19 -10 43 l0 42 -20 -42 c-10 -24 -22 -43 -25
-43 -3 0 -14 19 -25 43 l-19 42 0 -42 c-1 -24 -5 -43 -11 -43 -6 0 -10 28 -10
65 0 79 16 85 46 17z m324 38 c0 -5 -4 -10 -10 -10 -5 0 -10 5 -10 10 0 6 5
10 10 10 6 0 10 -4 10 -10z m358 -22 c2 -16 -2 -28 -8 -28 -6 0 -10 6 -9 13 3
27 -2 37 -21 37 -29 0 -28 -47 0 -52 25 -4 70 -68 48 -68 -7 0 -21 14 -30 30
-22 38 -38 38 -38 0 0 -16 -4 -30 -10 -30 -6 0 -10 29 -10 66 l0 65 38 -3 c32
-3 37 -7 40 -30z m52 22 c0 -5 -4 -10 -10 -10 -5 0 -10 5 -10 10 0 6 5 10 10
10 6 0 10 -4 10 -10z m304 -42 c10 -29 21 -59 23 -65 3 -7 0 -13 -5 -13 -6 0
-14 9 -17 20 -4 13 -15 20 -32 20 -16 0 -27 -7 -30 -20 -5 -20 -23 -28 -23
-11 0 23 44 121 54 121 6 0 20 -24 30 -52z m804 11 c15 -1 15 -2 0 -6 -12 -3
-18 -14 -18 -33 0 -17 7 -33 18 -39 15 -9 15 -10 -5 -11 -20 0 -23 5 -23 40 0
25 -5 40 -12 41 -10 0 -10 2 0 6 6 2 13 12 13 21 1 15 2 15 6 0 2 -10 12 -19
21 -19z m-2440 -11 c28 -28 7 -78 -33 -78 -27 0 -45 18 -45 45 0 27 18 45 45
45 12 0 26 -5 33 -12z m43 -15 l11 -28 10 28 c13 36 25 34 37 -5 l9 -33 7 33
c4 17 11 32 16 32 12 0 11 -5 -3 -51 -13 -46 -24 -49 -39 -11 l-11 27 -10 -27
c-14 -39 -24 -35 -41 17 -17 48 -4 64 14 18z m177 15 c22 -22 13 -38 -19 -38
-20 0 -29 -4 -26 -12 2 -7 14 -13 26 -12 11 0 21 -3 21 -8 0 -9 -31 -11 -54
-2 -19 7 -21 55 -4 72 7 7 19 12 28 12 9 0 21 -5 28 -12z m70 5 c-10 -3 -21
-21 -26 -46 l-10 -42 -1 45 c-1 43 1 46 27 47 15 0 19 -1 10 -4z m90 -20 c3
-20 -1 -23 -28 -23 -21 0 -30 -4 -27 -12 2 -7 16 -12 31 -11 14 1 24 -2 21 -8
-9 -13 -49 -11 -63 3 -16 16 -15 51 0 66 21 21 63 10 66 -15z m400 0 c3 -20
-1 -23 -28 -23 -21 0 -30 -4 -27 -12 2 -7 16 -12 31 -11 14 1 24 -2 21 -8 -9
-13 -49 -11 -63 3 -16 16 -15 51 0 66 21 21 63 10 66 -15z m142 -18 c0 -25 -4
-45 -10 -45 -5 0 -10 20 -10 45 0 25 5 45 10 45 6 0 10 -20 10 -45z m90 37 c0
-5 -10 -8 -22 -8 -19 1 -23 -4 -23 -29 0 -25 4 -30 23 -29 12 0 22 -3 22 -8 0
-12 -44 -10 -58 4 -29 29 -7 78 35 78 13 0 23 -4 23 -8z m78 -40 l3 -43 -33 3
c-25 2 -34 8 -36 25 -3 17 3 24 22 29 14 3 26 11 26 16 0 6 -11 7 -26 4 -17
-5 -23 -3 -19 4 4 6 19 10 33 8 24 -3 27 -8 30 -46z m242 3 c0 -25 -4 -45 -10
-45 -5 0 -10 20 -10 45 0 25 5 45 10 45 6 0 10 -20 10 -45z m70 36 c0 -5 -9
-7 -20 -4 -28 7 -25 -12 6 -32 20 -13 23 -19 13 -31 -13 -15 -59 -19 -59 -5 0
5 8 7 19 4 30 -8 35 16 7 29 -25 11 -33 28 -19 41 10 10 53 8 53 -2z m330 -2
c0 -6 -8 -8 -19 -4 -30 9 -35 -14 -6 -25 35 -13 30 -44 -8 -48 -15 -2 -27 1
-27 6 0 6 9 8 20 5 27 -7 26 11 -2 29 -28 19 -18 48 17 48 14 0 25 -5 25 -11z
m70 2 c0 -5 -9 -7 -20 -4 -27 7 -26 -11 2 -29 28 -19 18 -48 -17 -48 -14 0
-25 4 -25 9 0 5 8 7 19 4 30 -8 35 16 7 27 -25 9 -34 29 -19 43 10 10 53 8 53
-2z m88 -3 c23 -23 13 -38 -24 -38 -32 0 -35 -2 -23 -16 7 -8 21 -13 31 -11
10 3 18 1 18 -4 0 -5 -14 -9 -30 -9 -23 0 -33 6 -39 23 -18 49 32 90 67 55z
m82 1 c0 -6 -8 -8 -19 -4 -30 9 -35 -14 -6 -25 35 -13 30 -44 -8 -48 -15 -2
-27 1 -27 6 0 6 9 8 20 5 27 -7 26 11 -2 29 -28 19 -18 48 17 48 14 0 25 -5
25 -11z m70 2 c0 -5 -9 -7 -20 -4 -27 7 -26 -11 2 -29 28 -19 18 -48 -17 -48
-14 0 -25 4 -25 9 0 5 8 7 19 4 30 -8 35 16 7 27 -25 9 -34 29 -19 43 10 10
53 8 53 -2z m148 -38 c2 -26 -1 -43 -7 -43 -6 0 -11 18 -11 40 0 29 -4 40 -15
40 -11 0 -15 -11 -15 -40 0 -22 -4 -40 -10 -40 -5 0 -10 12 -10 28 0 15 -4 33
-9 41 -14 22 -31 3 -31 -35 0 -19 -4 -34 -10 -34 -5 0 -10 20 -10 45 l0 45 63
-3 62 -2 3 -42z m90 35 c23 -23 13 -38 -24 -38 -32 0 -35 -2 -23 -16 7 -8 21
-13 31 -11 10 3 18 1 18 -4 0 -5 -14 -9 -30 -9 -23 0 -33 6 -39 23 -18 49 32
90 67 55z m100 -35 c2 -26 -1 -43 -7 -43 -6 0 -11 18 -11 41 0 33 -3 40 -17
37 -13 -2 -19 -14 -21 -41 -4 -52 -22 -47 -22 7 l0 44 38 -1 c36 -2 37 -3 40
-44z m-2575 10 c-7 -2 -21 -2 -30 0 -10 3 -4 5 12 5 17 0 24 -2 18 -5z"/>
<path d="M3724 586 c-10 -26 0 -51 21 -51 16 0 20 7 20 30 0 33 -30 49 -41 21z"/>
<path d="M1322 644 c-51 -35 -7 -134 47 -105 37 20 38 91 1 111 -24 13 -22 13
-48 -6z"/>
<path d="M1830 595 c0 -71 12 -82 58 -49 46 32 17 114 -40 114 -15 0 -18 -9
-18 -65z"/>
<path d="M2334 646 c-8 -21 13 -46 32 -39 20 8 13 47 -9 51 -9 2 -20 -4 -23
-12z"/>
<path d="M2600 635 c0 -22 4 -26 23 -23 14 2 22 10 22 23 0 13 -8 21 -22 23
-19 3 -23 -1 -23 -23z"/>
<path d="M3270 630 c0 -25 4 -31 18 -28 11 2 17 12 17 28 0 16 -6 26 -17 28
-14 3 -18 -3 -18 -28z"/>
<path d="M572 610 c-13 -11 -39 -22 -59 -26 l-35 -7 4 -71 c6 -88 24 -125 77
-154 l40 -23 40 21 c55 27 71 63 71 153 l0 74 -39 11 c-21 7 -44 19 -51 27
-16 19 -20 19 -48 -5z"/>
<path d="M3560 590 c0 -5 9 -10 20 -10 11 0 20 5 20 10 0 6 -9 10 -20 10 -11
0 -20 -4 -20 -10z"/>
<path d="M4254 586 c-10 -26 1 -51 22 -54 24 -3 38 20 29 49 -7 22 -43 25 -51
5z"/>
<path d="M1874 276 c-10 -26 0 -51 21 -51 16 0 20 7 20 30 0 33 -30 49 -41 21z"/>
<path d="M2274 276 c-9 -24 0 -51 18 -54 19 -4 35 38 23 57 -9 16 -35 13 -41
-3z"/>
<path d="M1100 301 c0 -5 -3 -16 -6 -25 -4 -11 0 -16 14 -16 15 0 19 5 15 20
-6 22 -23 38 -23 21z"/>
<path d="M1310 300 c0 -32 19 -40 39 -16 15 18 3 46 -20 46 -14 0 -19 -7 -19
-30z"/>
<path d="M3052 290 c-7 -19 -6 -26 5 -28 21 -5 25 2 14 29 l-9 24 -10 -25z"/>
<path d="M1404 276 c-10 -26 0 -51 21 -51 16 0 20 7 20 30 0 33 -30 49 -41 21z"/>
<path d="M1637 284 c-13 -13 -7 -24 14 -24 11 0 19 5 17 12 -5 14 -22 21 -31
12z"/>
<path d="M1787 284 c-13 -13 -7 -24 14 -24 11 0 19 5 17 12 -5 14 -22 21 -31
12z"/>
<path d="M2187 284 c-13 -13 -7 -24 14 -24 11 0 19 5 17 12 -5 14 -22 21 -31
12z"/>
<path d="M2503 245 c-3 -9 -3 -18 0 -21 9 -9 27 6 27 22 0 19 -19 18 -27 -1z"/>
<path d="M3300 275 c-11 -13 -9 -15 15 -15 16 0 25 5 23 12 -7 19 -24 20 -38
3z"/>
<path d="M3690 275 c-11 -13 -9 -15 15 -15 16 0 25 5 23 12 -7 19 -24 20 -38
3z"/>
</g>
</svg>
