<?xml version="1.0" standalone="no"?>
<!DOCTYPE svg PUBLIC "-//W3C//DTD SVG 20010904//EN"
 "http://www.w3.org/TR/2001/REC-SVG-20010904/DTD/svg10.dtd">
<svg version="1.0" xmlns="http://www.w3.org/2000/svg"
 width="512.000000pt" height="512.000000pt" viewBox="0 0 512.000000 512.000000"
 preserveAspectRatio="xMidYMid meet">

<g transform="translate(0.000000,512.000000) scale(0.100000,-0.100000)"
fill="#000000" stroke="none">
<path d="M954 4789 c-17 -19 -19 -41 -22 -194 l-3 -173 -137 -4 c-154 -4 -186
-14 -221 -71 -21 -34 -21 -39 -21 -893 0 -844 0 -860 20 -892 33 -54 86 -72
218 -72 l112 0 0 -420 c0 -231 -2 -420 -5 -420 -3 0 -57 80 -121 178 -64 97
-132 194 -152 215 -41 42 -123 77 -183 77 -109 0 -215 -98 -233 -216 -12 -80
10 -124 229 -459 115 -176 227 -344 250 -374 49 -66 141 -144 232 -196 l68
-38 -3 -240 c-3 -236 -3 -240 19 -263 l22 -24 548 0 c523 0 548 1 570 19 24
19 24 22 27 238 2 166 -1 224 -11 243 -12 23 -10 29 31 80 114 140 132 233
132 675 l0 323 -28 53 c-39 75 -102 114 -186 114 -34 0 -73 -3 -88 -8 -25 -6
-29 -4 -42 25 -19 44 -58 84 -108 109 -33 17 -54 20 -107 17 -36 -3 -73 -8
-82 -12 -12 -5 -18 -1 -23 18 -9 36 -62 94 -109 117 -43 22 -113 29 -164 16
l-33 -9 0 81 0 81 648 0 c616 0 649 1 689 20 25 11 51 33 63 52 20 32 20 48
20 893 0 835 -1 861 -20 892 -34 56 -68 67 -222 71 l-138 4 0 168 c0 227 5
220 -171 220 -178 0 -169 11 -169 -215 l0 -175 -110 0 -110 0 0 175 c0 226 9
215 -170 215 -179 0 -170 11 -170 -215 l0 -175 -110 0 -110 0 0 179 c0 224 10
211 -171 211 -115 0 -128 -2 -145 -21z m194 -346 l-3 -238 -42 -3 -43 -3 0
240 0 241 45 0 45 0 -2 -237z m552 -3 l0 -240 -40 0 -40 0 0 240 0 240 40 0
40 0 0 -240z m560 -1 l0 -240 -42 3 -43 3 -3 238 -2 237 45 0 45 0 0 -241z
m-1330 -218 c0 -71 12 -120 33 -133 7 -4 70 -8 141 -8 166 0 166 0 166 122 l0
88 110 0 110 0 0 -85 c0 -123 3 -125 174 -125 165 0 166 1 166 127 l0 83 110
0 110 0 0 -87 c0 -123 0 -123 164 -123 72 0 136 4 142 8 24 15 34 54 34 127
l0 76 128 -3 127 -3 3 -167 2 -168 -990 0 -990 0 0 163 c0 90 3 167 7 170 3 4
62 7 130 7 l123 0 0 -69z m1718 -998 l-3 -598 -647 -3 -648 -2 0 176 c0 194
-7 234 -52 289 -90 108 -257 107 -347 -2 -45 -55 -51 -87 -51 -286 l0 -178
-112 3 -113 3 -3 598 -2 597 990 0 990 0 -2 -597z m-1457 -212 l29 -29 0 -431
c0 -307 3 -437 12 -456 23 -50 102 -42 114 12 12 57 27 84 55 98 45 24 77 19
115 -19 l34 -34 0 -98 c0 -108 12 -134 59 -134 39 0 48 10 68 70 14 44 25 59
54 74 43 23 80 16 115 -21 22 -24 24 -34 24 -125 0 -92 2 -101 25 -123 13 -14
31 -25 40 -25 25 0 65 46 65 74 0 14 13 40 28 57 51 57 140 36 163 -40 8 -28
10 -127 6 -347 -7 -409 -15 -442 -143 -586 l-69 -76 -401 -1 -400 -1 -52 38
c-28 20 -99 66 -158 102 -62 38 -126 86 -153 116 -39 42 -445 652 -480 721
-36 70 21 163 100 163 72 0 85 -15 288 -325 109 -166 201 -297 212 -300 10 -4
31 0 46 7 l28 13 6 585 c3 322 7 681 8 798 l1 214 29 29 c22 21 39 29 66 29
27 0 44 -8 66 -29z m839 -2426 l0 -135 -455 0 -455 0 0 135 0 135 455 0 455 0
0 -135z"/>
<path d="M954 3626 c-17 -13 -19 -27 -19 -150 0 -178 -7 -171 171 -171 172 0
164 -8 164 170 0 171 6 165 -166 165 -97 0 -135 -4 -150 -14z m194 -153 l3
-43 -45 0 -46 0 0 46 0 45 43 -3 c42 -3 42 -3 45 -45z"/>
<path d="M1506 3618 c-12 -17 -16 -50 -16 -146 0 -117 1 -124 25 -147 23 -24
30 -25 143 -25 106 0 122 2 146 21 26 20 26 22 26 148 0 177 6 171 -170 171
-132 0 -140 -1 -154 -22z m194 -143 l0 -45 -40 0 -40 0 0 45 0 45 40 0 40 0 0
-45z"/>
<path d="M2067 3622 c-14 -15 -17 -42 -17 -150 0 -176 0 -176 190 -170 152 4
153 5 148 181 -4 163 3 157 -173 157 -115 0 -134 -2 -148 -18z m193 -147 l0
-45 -45 0 -45 0 0 38 c0 48 4 52 52 52 l38 0 0 -45z"/>
<path d="M1506 3108 c-12 -17 -16 -50 -16 -143 0 -170 -5 -165 169 -165 178 0
171 -7 171 167 0 170 7 163 -173 163 -129 0 -137 -1 -151 -22z m194 -143 l0
-45 -40 0 -40 0 0 45 0 45 40 0 40 0 0 -45z"/>
<path d="M2066 3114 c-13 -12 -16 -41 -16 -148 0 -173 -7 -166 172 -166 114 0
138 3 149 17 10 11 15 54 17 140 5 178 10 173 -168 173 -113 0 -142 -3 -154
-16z m194 -150 l0 -45 -42 3 c-39 3 -43 6 -46 31 -6 46 4 57 48 57 l40 0 0
-46z"/>
<path d="M3130 3943 c-50 -19 -65 -68 -30 -103 19 -19 33 -20 445 -20 l425 0
0 -210 c0 -197 1 -211 20 -230 25 -25 51 -25 81 -1 l24 19 0 256 c0 232 -2
257 -18 273 -16 17 -51 18 -475 20 -251 1 -464 -1 -472 -4z"/>
<path d="M3897 3170 c-381 -64 -679 -363 -738 -741 -15 -99 -6 -274 21 -369
84 -299 330 -540 635 -622 116 -31 317 -30 434 1 328 87 577 346 648 675 20
92 20 270 0 362 -63 291 -273 537 -551 645 -132 51 -315 71 -449 49z m73 -180
c0 -67 21 -100 63 -100 39 0 60 34 65 100 2 33 8 60 13 60 4 0 39 -7 78 -15
310 -65 537 -310 595 -642 l6 -33 -58 0 c-73 0 -102 -18 -102 -65 0 -47 29
-65 102 -65 l57 0 -5 -32 c-17 -96 -38 -162 -80 -246 -98 -196 -281 -340 -496
-392 -45 -11 -88 -20 -94 -20 -7 0 -13 24 -16 60 -5 68 -27 100 -69 100 -40 0
-59 -33 -59 -102 0 -68 2 -68 -116 -38 -272 68 -486 280 -555 548 -30 119 -29
122 36 122 46 0 60 4 80 25 14 13 25 31 25 40 0 9 -11 27 -25 40 -20 21 -34
25 -80 25 -51 0 -55 2 -55 23 0 50 41 181 80 256 103 198 275 335 490 391 120
31 120 31 120 -40z"/>
<path d="M4282 2752 c-25 -16 -312 -437 -312 -458 0 -28 173 -246 205 -258 36
-14 75 15 75 57 0 25 -16 52 -70 119 l-69 86 131 187 c85 123 131 196 131 213
0 43 -56 76 -91 54z"/>
<path d="M3990 1210 c-19 -19 -20 -33 -20 -230 l0 -210 -733 0 c-698 0 -735
-1 -750 -18 -21 -23 -22 -66 -1 -86 14 -14 100 -16 798 -16 717 0 785 1 797
17 11 13 14 70 14 270 l0 255 -24 19 c-30 24 -56 24 -81 -1z"/>
</g>
</svg>
